solid OpenSCAD_Model
  facet normal -0.994522 -0.104524 0
    outer loop
      vertex -4.01824 -20.1107 0.981756
      vertex -4.02185 -20.0764 4.02185
      vertex -4.02185 -20.0764 0.978148
    endloop
  endfacet
  facet normal -0.994522 -0.104524 1.16181e-09
    outer loop
      vertex -4.01824 -20.1107 0.981756
      vertex -4.00364 -20.2497 4.00363
      vertex -4.02185 -20.0764 4.02185
    endloop
  endfacet
  facet normal -0.994522 -0.104524 -9.81812e-09
    outer loop
      vertex -4 -20.2843 0.999999
      vertex -4.00364 -20.2497 4.00363
      vertex -4.01824 -20.1107 0.981756
    endloop
  endfacet
  facet normal -0.994522 -0.104525 0
    outer loop
      vertex -4.00364 -20.2497 4.00363
      vertex -4 -20.2843 0.999999
      vertex -4 -20.2843 4
    endloop
  endfacet
  facet normal -0.994522 -0.104524 0
    outer loop
      vertex -4.01824 -20.1107 -4.01824
      vertex -4.02185 -20.0764 -0.978148
      vertex -4.02185 -20.0764 -4.02185
    endloop
  endfacet
  facet normal -0.994522 -0.104524 1.16181e-09
    outer loop
      vertex -4.01824 -20.1107 -4.01824
      vertex -4.00364 -20.2497 -0.996365
      vertex -4.02185 -20.0764 -0.978148
    endloop
  endfacet
  facet normal -0.994522 -0.104524 -9.81812e-09
    outer loop
      vertex -4 -20.2843 -4
      vertex -4.00364 -20.2497 -0.996365
      vertex -4.01824 -20.1107 -4.01824
    endloop
  endfacet
  facet normal -0.994522 -0.104525 0
    outer loop
      vertex -4.00364 -20.2497 -0.996365
      vertex -4 -20.2843 -4
      vertex -4 -20.2843 -1
    endloop
  endfacet
  facet normal -0.587769 -0.809028 0
    outer loop
      vertex -4.5 -19.4182 0.499999
      vertex -4.47856 -19.4338 4.47856
      vertex -4.5 -19.4182 4.5
    endloop
  endfacet
  facet normal -0.587787 -0.809016 -1.6002e-07
    outer loop
      vertex -4.47856 -19.4338 4.47856
      vertex -4.35407 -19.5243 0.645932
      vertex -4.33087 -19.5411 4.33087
    endloop
  endfacet
  facet normal -0.587804 -0.809004 -0
    outer loop
      vertex -4.33087 -19.5411 4.33087
      vertex -4.35407 -19.5243 0.645932
      vertex -4.33087 -19.5411 0.66913
    endloop
  endfacet
  facet normal -0.587782 -0.809019 1.02642e-07
    outer loop
      vertex -4.47856 -19.4338 4.47856
      vertex -4.5 -19.4182 0.499999
      vertex -4.35407 -19.5243 0.645932
    endloop
  endfacet
  facet normal -0.587769 -0.809028 0
    outer loop
      vertex -4.5 -19.4182 -4.5
      vertex -4.47856 -19.4338 -0.521444
      vertex -4.5 -19.4182 -0.5
    endloop
  endfacet
  facet normal -0.587787 -0.809016 -1.6002e-07
    outer loop
      vertex -4.47856 -19.4338 -0.521444
      vertex -4.35407 -19.5243 -4.35407
      vertex -4.33087 -19.5411 -0.66913
    endloop
  endfacet
  facet normal -0.587804 -0.809004 -0
    outer loop
      vertex -4.33087 -19.5411 -0.66913
      vertex -4.35407 -19.5243 -4.35407
      vertex -4.33087 -19.5411 -4.33087
    endloop
  endfacet
  facet normal -0.587782 -0.809019 1.02642e-07
    outer loop
      vertex -4.47856 -19.4338 -0.521444
      vertex -4.5 -19.4182 -4.5
      vertex -4.35407 -19.5243 -4.35407
    endloop
  endfacet
  facet normal -0.406716 -0.913555 0
    outer loop
      vertex -4.5235 -19.4078 4.5235
      vertex -4.5 -19.4182 0.499999
      vertex -4.5 -19.4182 4.5
    endloop
  endfacet
  facet normal -0.406742 -0.913543 8.91956e-08
    outer loop
      vertex -4.66981 -19.3426 0.330187
      vertex -4.5235 -19.4078 4.5235
      vertex -4.69098 -19.3332 4.69098
    endloop
  endfacet
  facet normal -0.406736 -0.913546 -1.38919e-07
    outer loop
      vertex -4.5235 -19.4078 4.5235
      vertex -4.66981 -19.3426 0.330187
      vertex -4.5 -19.4182 0.499999
    endloop
  endfacet
  facet normal -0.406757 -0.913536 0
    outer loop
      vertex -4.66981 -19.3426 0.330187
      vertex -4.69098 -19.3332 4.69098
      vertex -4.69098 -19.3332 0.309016
    endloop
  endfacet
  facet normal -0.406716 -0.913555 0
    outer loop
      vertex -4.5235 -19.4078 -0.476501
      vertex -4.5 -19.4182 -4.5
      vertex -4.5 -19.4182 -0.5
    endloop
  endfacet
  facet normal -0.406742 -0.913543 8.91956e-08
    outer loop
      vertex -4.66981 -19.3426 -4.66981
      vertex -4.5235 -19.4078 -0.476501
      vertex -4.69098 -19.3332 -0.309016
    endloop
  endfacet
  facet normal -0.406736 -0.913546 -1.38919e-07
    outer loop
      vertex -4.5235 -19.4078 -0.476501
      vertex -4.66981 -19.3426 -4.66981
      vertex -4.5 -19.4182 -4.5
    endloop
  endfacet
  facet normal -0.406757 -0.913536 0
    outer loop
      vertex -4.66981 -19.3426 -4.66981
      vertex -4.69098 -19.3332 -0.309016
      vertex -4.69098 -19.3332 -4.69098
    endloop
  endfacet
  facet normal -0.866024 0.500002 0
    outer loop
      vertex -4.19098 -20.8721 0.809016
      vertex -4.08645 -20.691 4.08645
      vertex -4.08645 -20.691 0.913545
    endloop
  endfacet
  facet normal -0.866024 0.500002 0
    outer loop
      vertex -4.08645 -20.691 4.08645
      vertex -4.19098 -20.8721 0.809016
      vertex -4.19098 -20.8721 4.19098
    endloop
  endfacet
  facet normal -0.866024 0.500002 0
    outer loop
      vertex -4.19098 -20.8721 -4.19098
      vertex -4.08645 -20.691 -0.913545
      vertex -4.08645 -20.691 -4.08645
    endloop
  endfacet
  facet normal -0.866024 0.500002 0
    outer loop
      vertex -4.08645 -20.691 -0.913545
      vertex -4.19098 -20.8721 -4.19098
      vertex -4.19098 -20.8721 -0.809016
    endloop
  endfacet
  facet normal -0.866024 -0.500002 0
    outer loop
      vertex -4.08645 -19.8775 0.913545
      vertex -4.19098 -19.6965 4.19098
      vertex -4.19098 -19.6965 0.809016
    endloop
  endfacet
  facet normal -0.866024 -0.500002 0
    outer loop
      vertex -4.19098 -19.6965 4.19098
      vertex -4.08645 -19.8775 0.913545
      vertex -4.08645 -19.8775 4.08645
    endloop
  endfacet
  facet normal -0.866024 -0.500002 0
    outer loop
      vertex -4.08645 -19.8775 -4.08645
      vertex -4.19098 -19.6965 -0.809016
      vertex -4.19098 -19.6965 -4.19098
    endloop
  endfacet
  facet normal -0.866024 -0.500002 0
    outer loop
      vertex -4.19098 -19.6965 -0.809016
      vertex -4.08645 -19.8775 -4.08645
      vertex -4.08645 -19.8775 -0.913545
    endloop
  endfacet
  facet normal -0.951056 -0.309019 0
    outer loop
      vertex -4.02185 -20.0764 0.978148
      vertex -4.08645 -19.8775 4.08645
      vertex -4.08645 -19.8775 0.913545
    endloop
  endfacet
  facet normal -0.951056 -0.309019 0
    outer loop
      vertex -4.08645 -19.8775 4.08645
      vertex -4.02185 -20.0764 0.978148
      vertex -4.02185 -20.0764 4.02185
    endloop
  endfacet
  facet normal -0.951056 -0.309019 0
    outer loop
      vertex -4.02185 -20.0764 -4.02185
      vertex -4.08645 -19.8775 -0.913545
      vertex -4.08645 -19.8775 -4.08645
    endloop
  endfacet
  facet normal -0.951056 -0.309019 0
    outer loop
      vertex -4.08645 -19.8775 -0.913545
      vertex -4.02185 -20.0764 -4.02185
      vertex -4.02185 -20.0764 -0.978148
    endloop
  endfacet
  facet normal -0.743145 -0.66913 0
    outer loop
      vertex -4.19098 -19.6965 0.809016
      vertex -4.33087 -19.5411 4.33087
      vertex -4.33087 -19.5411 0.66913
    endloop
  endfacet
  facet normal -0.743145 -0.66913 0
    outer loop
      vertex -4.33087 -19.5411 4.33087
      vertex -4.19098 -19.6965 0.809016
      vertex -4.19098 -19.6965 4.19098
    endloop
  endfacet
  facet normal -0.743145 -0.66913 0
    outer loop
      vertex -4.19098 -19.6965 -4.19098
      vertex -4.33087 -19.5411 -0.66913
      vertex -4.33087 -19.5411 -4.33087
    endloop
  endfacet
  facet normal -0.743145 -0.66913 0
    outer loop
      vertex -4.33087 -19.5411 -0.66913
      vertex -4.19098 -19.6965 -4.19098
      vertex -4.19098 -19.6965 -0.809016
    endloop
  endfacet
  facet normal -0.207914 -0.978147 0
    outer loop
      vertex -4.8 -19.31 4.8
      vertex -4.69098 -19.3332 0.309016
      vertex -4.69098 -19.3332 4.69098
    endloop
  endfacet
  facet normal -0.207914 -0.978147 0
    outer loop
      vertex -4.69098 -19.3332 0.309016
      vertex -4.8 -19.31 4.8
      vertex -4.8 -19.31 0.2
    endloop
  endfacet
  facet normal -0.207914 -0.978147 0
    outer loop
      vertex -4.8 -19.31 -0.2
      vertex -4.69098 -19.3332 -4.69098
      vertex -4.69098 -19.3332 -0.309016
    endloop
  endfacet
  facet normal -0.207914 -0.978147 0
    outer loop
      vertex -4.69098 -19.3332 -4.69098
      vertex -4.8 -19.31 -0.2
      vertex -4.8 -19.31 -4.8
    endloop
  endfacet
  facet normal -0.207897 0.978151 0
    outer loop
      vertex -4.69098 -21.2353 0.309016
      vertex -4.8 -21.2585 4.8
      vertex -4.69098 -21.2353 4.69098
    endloop
  endfacet
  facet normal -0.207897 0.978151 0
    outer loop
      vertex -4.8 -21.2585 4.8
      vertex -4.69098 -21.2353 0.309016
      vertex -4.8 -21.2585 0.2
    endloop
  endfacet
  facet normal -0.207897 0.978151 0
    outer loop
      vertex -4.69098 -21.2353 -4.69098
      vertex -4.8 -21.2585 -0.2
      vertex -4.69098 -21.2353 -0.309016
    endloop
  endfacet
  facet normal -0.207897 0.978151 0
    outer loop
      vertex -4.8 -21.2585 -0.2
      vertex -4.69098 -21.2353 -4.69098
      vertex -4.8 -21.2585 -4.8
    endloop
  endfacet
  facet normal -0.58778 0.809021 1.9075e-07
    outer loop
      vertex -4.35407 -21.0443 0.645932
      vertex -4.47856 -21.1347 4.47856
      vertex -4.33087 -21.0274 4.33087
    endloop
  endfacet
  facet normal -0.58776 0.809035 0
    outer loop
      vertex -4.35407 -21.0443 0.645932
      vertex -4.33087 -21.0274 4.33087
      vertex -4.33087 -21.0274 0.66913
    endloop
  endfacet
  facet normal -0.587782 0.809019 1.02642e-07
    outer loop
      vertex -4.5 -21.1503 0.499999
      vertex -4.47856 -21.1347 4.47856
      vertex -4.35407 -21.0443 0.645932
    endloop
  endfacet
  facet normal -0.587769 0.809028 0
    outer loop
      vertex -4.47856 -21.1347 4.47856
      vertex -4.5 -21.1503 0.499999
      vertex -4.5 -21.1503 4.5
    endloop
  endfacet
  facet normal -0.58778 0.809021 1.9075e-07
    outer loop
      vertex -4.35407 -21.0443 -4.35407
      vertex -4.47856 -21.1347 -0.521444
      vertex -4.33087 -21.0274 -0.66913
    endloop
  endfacet
  facet normal -0.58776 0.809035 0
    outer loop
      vertex -4.35407 -21.0443 -4.35407
      vertex -4.33087 -21.0274 -0.66913
      vertex -4.33087 -21.0274 -4.33087
    endloop
  endfacet
  facet normal -0.587782 0.809019 1.02642e-07
    outer loop
      vertex -4.5 -21.1503 -4.5
      vertex -4.47856 -21.1347 -0.521444
      vertex -4.35407 -21.0443 -4.35407
    endloop
  endfacet
  facet normal -0.587769 0.809028 0
    outer loop
      vertex -4.47856 -21.1347 -0.521444
      vertex -4.5 -21.1503 -4.5
      vertex -4.5 -21.1503 -0.5
    endloop
  endfacet
  facet normal -0.743149 0.669126 0
    outer loop
      vertex -4.33087 -21.0274 0.66913
      vertex -4.19098 -20.8721 4.19098
      vertex -4.19098 -20.8721 0.809016
    endloop
  endfacet
  facet normal -0.743149 0.669126 0
    outer loop
      vertex -4.19098 -20.8721 4.19098
      vertex -4.33087 -21.0274 0.66913
      vertex -4.33087 -21.0274 4.33087
    endloop
  endfacet
  facet normal -0.743149 0.669126 0
    outer loop
      vertex -4.33087 -21.0274 -4.33087
      vertex -4.19098 -20.8721 -0.809016
      vertex -4.19098 -20.8721 -4.19098
    endloop
  endfacet
  facet normal -0.743149 0.669126 0
    outer loop
      vertex -4.19098 -20.8721 -0.809016
      vertex -4.33087 -21.0274 -4.33087
      vertex -4.33087 -21.0274 -0.66913
    endloop
  endfacet
  facet normal -0.951055 0.309021 0
    outer loop
      vertex -4.08645 -20.691 0.913545
      vertex -4.02185 -20.4922 4.02185
      vertex -4.02185 -20.4922 0.978148
    endloop
  endfacet
  facet normal -0.951055 0.309021 0
    outer loop
      vertex -4.02185 -20.4922 4.02185
      vertex -4.08645 -20.691 0.913545
      vertex -4.08645 -20.691 4.08645
    endloop
  endfacet
  facet normal -0.951055 0.309021 0
    outer loop
      vertex -4.08645 -20.691 -4.08645
      vertex -4.02185 -20.4922 -0.978148
      vertex -4.02185 -20.4922 -4.02185
    endloop
  endfacet
  facet normal -0.951055 0.309021 0
    outer loop
      vertex -4.02185 -20.4922 -0.978148
      vertex -4.08645 -20.691 -4.08645
      vertex -4.08645 -20.691 -0.913545
    endloop
  endfacet
  facet normal -0.994522 0.104525 0
    outer loop
      vertex -4 -20.2843 0.999999
      vertex -4.00364 -20.3189 4.00363
      vertex -4 -20.2843 4
    endloop
  endfacet
  facet normal -0.994522 0.104524 -9.81812e-09
    outer loop
      vertex -4.01824 -20.4578 0.981756
      vertex -4.00364 -20.3189 4.00363
      vertex -4 -20.2843 0.999999
    endloop
  endfacet
  facet normal -0.994522 0.104524 0
    outer loop
      vertex -4.02185 -20.4922 4.02185
      vertex -4.01824 -20.4578 0.981756
      vertex -4.02185 -20.4922 0.978148
    endloop
  endfacet
  facet normal -0.994522 0.104524 1.16181e-09
    outer loop
      vertex -4.01824 -20.4578 0.981756
      vertex -4.02185 -20.4922 4.02185
      vertex -4.00364 -20.3189 4.00363
    endloop
  endfacet
  facet normal -0.994522 0.104525 0
    outer loop
      vertex -4 -20.2843 -4
      vertex -4.00364 -20.3189 -0.996365
      vertex -4 -20.2843 -1
    endloop
  endfacet
  facet normal -0.994522 0.104524 -9.81812e-09
    outer loop
      vertex -4.01824 -20.4578 -4.01824
      vertex -4.00364 -20.3189 -0.996365
      vertex -4 -20.2843 -4
    endloop
  endfacet
  facet normal -0.994522 0.104524 0
    outer loop
      vertex -4.02185 -20.4922 -0.978148
      vertex -4.01824 -20.4578 -4.01824
      vertex -4.02185 -20.4922 -4.02185
    endloop
  endfacet
  facet normal -0.994522 0.104524 1.16181e-09
    outer loop
      vertex -4.01824 -20.4578 -4.01824
      vertex -4.02185 -20.4922 -0.978148
      vertex -4.00364 -20.3189 -0.996365
    endloop
  endfacet
  facet normal -0.406778 0.913527 0
    outer loop
      vertex -4.5 -21.1503 0.499999
      vertex -4.5235 -21.1608 4.5235
      vertex -4.5 -21.1503 4.5
    endloop
  endfacet
  facet normal -0.406745 0.913542 2.32053e-07
    outer loop
      vertex -4.66981 -21.2259 0.330187
      vertex -4.5235 -21.1608 4.5235
      vertex -4.5 -21.1503 0.499999
    endloop
  endfacet
  facet normal -0.406742 0.913543 8.91956e-08
    outer loop
      vertex -4.5235 -21.1608 4.5235
      vertex -4.66981 -21.2259 0.330187
      vertex -4.69098 -21.2353 4.69098
    endloop
  endfacet
  facet normal -0.406757 0.913536 0
    outer loop
      vertex -4.69098 -21.2353 4.69098
      vertex -4.66981 -21.2259 0.330187
      vertex -4.69098 -21.2353 0.309016
    endloop
  endfacet
  facet normal -0.406778 0.913527 0
    outer loop
      vertex -4.5 -21.1503 -4.5
      vertex -4.5235 -21.1608 -0.476501
      vertex -4.5 -21.1503 -0.5
    endloop
  endfacet
  facet normal -0.406745 0.913542 2.32053e-07
    outer loop
      vertex -4.66981 -21.2259 -4.66981
      vertex -4.5235 -21.1608 -0.476501
      vertex -4.5 -21.1503 -4.5
    endloop
  endfacet
  facet normal -0.406742 0.913543 8.91956e-08
    outer loop
      vertex -4.5235 -21.1608 -0.476501
      vertex -4.66981 -21.2259 -4.66981
      vertex -4.69098 -21.2353 -0.309016
    endloop
  endfacet
  facet normal -0.406757 0.913536 0
    outer loop
      vertex -4.69098 -21.2353 -0.309016
      vertex -4.66981 -21.2259 -4.66981
      vertex -4.69098 -21.2353 -4.69098
    endloop
  endfacet
  facet normal 0 -0.104524 0.994522
    outer loop
      vertex -4.02185 -20.0764 4.02185
      vertex 4.01824 -20.1107 4.01824
      vertex 4.02185 -20.0764 4.02185
    endloop
  endfacet
  facet normal -2.38189e-08 -0.104529 0.994522
    outer loop
      vertex 4.01824 -20.1107 4.01824
      vertex -4.02185 -20.0764 4.02185
      vertex -4.00364 -20.2497 4.00363
    endloop
  endfacet
  facet normal -5.92782e-08 -0.104518 0.994523
    outer loop
      vertex 4.00363 -20.2497 4.00363
      vertex -4 -20.2843 4
      vertex 4 -20.2843 4
    endloop
  endfacet
  facet normal -5.92243e-08 -0.104527 0.994522
    outer loop
      vertex -4.00364 -20.2497 4.00363
      vertex 4.00363 -20.2497 4.00363
      vertex 4.01824 -20.1107 4.01824
    endloop
  endfacet
  facet normal -5.92244e-08 -0.104518 0.994523
    outer loop
      vertex 4.00363 -20.2497 4.00363
      vertex -4.00364 -20.2497 4.00363
      vertex -4 -20.2843 4
    endloop
  endfacet
  facet normal -2.14378e-08 -0.913545 0.406738
    outer loop
      vertex -4.5235 -19.4078 4.5235
      vertex 4.5235 -19.4078 4.5235
      vertex 4.66981 -19.3426 4.66981
    endloop
  endfacet
  facet normal -2.1437e-08 -0.913551 0.406723
    outer loop
      vertex -4.5235 -19.4078 4.5235
      vertex 4.5 -19.4182 4.5
      vertex 4.5235 -19.4078 4.5235
    endloop
  endfacet
  facet normal -4.30972e-08 -0.913555 0.406716
    outer loop
      vertex 4.5 -19.4182 4.5
      vertex -4.5235 -19.4078 4.5235
      vertex -4.5 -19.4182 4.5
    endloop
  endfacet
  facet normal 6.30846e-08 -0.809015 0.587788
    outer loop
      vertex -4.33087 -19.5411 4.33087
      vertex 4.35407 -19.5243 4.35407
      vertex -4.47856 -19.4338 4.47856
    endloop
  endfacet
  facet normal 0 -0.809004 0.587804
    outer loop
      vertex 4.35407 -19.5243 4.35407
      vertex -4.33087 -19.5411 4.33087
      vertex 4.33087 -19.5411 4.33087
    endloop
  endfacet
  facet normal 0 -0.913536 0.406757
    outer loop
      vertex -4.69098 -19.3332 4.69098
      vertex 4.66981 -19.3426 4.66981
      vertex 4.69098 -19.3332 4.69098
    endloop
  endfacet
  facet normal -4.66942e-08 -0.913544 0.40674
    outer loop
      vertex 4.66981 -19.3426 4.66981
      vertex -4.69098 -19.3332 4.69098
      vertex -4.5235 -19.4078 4.5235
    endloop
  endfacet
  facet normal 0 -0.978147 0.207914
    outer loop
      vertex -4.69098 -19.3332 4.69098
      vertex 4.8 -19.31 4.8
      vertex -4.8 -19.31 4.8
    endloop
  endfacet
  facet normal 0 -0.978147 0.207914
    outer loop
      vertex 4.8 -19.31 4.8
      vertex -4.69098 -19.3332 4.69098
      vertex 4.69098 -19.3332 4.69098
    endloop
  endfacet
  facet normal -6.22823e-08 -0.809028 0.587769
    outer loop
      vertex -4.5 -19.4182 4.5
      vertex 4.47856 -19.4338 4.47856
      vertex 4.5 -19.4182 4.5
    endloop
  endfacet
  facet normal -3.12907e-08 -0.809022 0.587778
    outer loop
      vertex -4.47856 -19.4338 4.47856
      vertex 4.47856 -19.4338 4.47856
      vertex -4.5 -19.4182 4.5
    endloop
  endfacet
  facet normal -3.1291e-08 -0.809018 0.587784
    outer loop
      vertex 4.47856 -19.4338 4.47856
      vertex -4.47856 -19.4338 4.47856
      vertex 4.35407 -19.5243 4.35407
    endloop
  endfacet
  facet normal 0 -0.309019 0.951056
    outer loop
      vertex 4.08645 -19.8775 4.08645
      vertex -4.02185 -20.0764 4.02185
      vertex 4.02185 -20.0764 4.02185
    endloop
  endfacet
  facet normal 0 -0.309019 0.951056
    outer loop
      vertex -4.02185 -20.0764 4.02185
      vertex 4.08645 -19.8775 4.08645
      vertex -4.08645 -19.8775 4.08645
    endloop
  endfacet
  facet normal 0 0.913536 0.406757
    outer loop
      vertex 4.66981 -21.2259 4.66981
      vertex -4.69098 -21.2353 4.69098
      vertex 4.69098 -21.2353 4.69098
    endloop
  endfacet
  facet normal -4.66942e-08 0.913544 0.40674
    outer loop
      vertex -4.69098 -21.2353 4.69098
      vertex 4.66981 -21.2259 4.66981
      vertex -4.5235 -21.1608 4.5235
    endloop
  endfacet
  facet normal -0 0.809035 0.58776
    outer loop
      vertex -4.33087 -21.0274 4.33087
      vertex 4.35407 -21.0443 4.35407
      vertex 4.33087 -21.0274 4.33087
    endloop
  endfacet
  facet normal -8.62813e-08 0.80902 0.587781
    outer loop
      vertex 4.35407 -21.0443 4.35407
      vertex -4.33087 -21.0274 4.33087
      vertex -4.47856 -21.1347 4.47856
    endloop
  endfacet
  facet normal -0 0.309021 0.951055
    outer loop
      vertex -4.02185 -20.4922 4.02185
      vertex 4.08645 -20.691 4.08645
      vertex 4.02185 -20.4922 4.02185
    endloop
  endfacet
  facet normal 0 0.309021 0.951055
    outer loop
      vertex 4.08645 -20.691 4.08645
      vertex -4.02185 -20.4922 4.02185
      vertex -4.08645 -20.691 4.08645
    endloop
  endfacet
  facet normal 0 -0.66913 0.743145
    outer loop
      vertex 4.33087 -19.5411 4.33087
      vertex -4.19098 -19.6965 4.19098
      vertex 4.19098 -19.6965 4.19098
    endloop
  endfacet
  facet normal 0 -0.66913 0.743145
    outer loop
      vertex -4.19098 -19.6965 4.19098
      vertex 4.33087 -19.5411 4.33087
      vertex -4.33087 -19.5411 4.33087
    endloop
  endfacet
  facet normal -2.38189e-08 0.104529 0.994522
    outer loop
      vertex -4.02185 -20.4922 4.02185
      vertex 4.01824 -20.4578 4.01824
      vertex -4.00364 -20.3189 4.00363
    endloop
  endfacet
  facet normal 0 0.104524 0.994522
    outer loop
      vertex 4.01824 -20.4578 4.01824
      vertex -4.02185 -20.4922 4.02185
      vertex 4.02185 -20.4922 4.02185
    endloop
  endfacet
  facet normal -5.92782e-08 0.104518 0.994523
    outer loop
      vertex -4 -20.2843 4
      vertex 4.00363 -20.3189 4.00363
      vertex 4 -20.2843 4
    endloop
  endfacet
  facet normal -5.92244e-08 0.104518 0.994523
    outer loop
      vertex -4.00364 -20.3189 4.00363
      vertex 4.00363 -20.3189 4.00363
      vertex -4 -20.2843 4
    endloop
  endfacet
  facet normal -5.92243e-08 0.104527 0.994522
    outer loop
      vertex 4.00363 -20.3189 4.00363
      vertex -4.00364 -20.3189 4.00363
      vertex 4.01824 -20.4578 4.01824
    endloop
  endfacet
  facet normal 0 -0.500002 0.866024
    outer loop
      vertex 4.19098 -19.6965 4.19098
      vertex -4.08645 -19.8775 4.08645
      vertex 4.08645 -19.8775 4.08645
    endloop
  endfacet
  facet normal 0 -0.500002 0.866024
    outer loop
      vertex -4.08645 -19.8775 4.08645
      vertex 4.19098 -19.6965 4.19098
      vertex -4.19098 -19.6965 4.19098
    endloop
  endfacet
  facet normal -2.14378e-08 0.913545 0.406738
    outer loop
      vertex 4.5235 -21.1608 4.5235
      vertex -4.5235 -21.1608 4.5235
      vertex 4.66981 -21.2259 4.66981
    endloop
  endfacet
  facet normal -2.14403e-08 0.913524 0.406785
    outer loop
      vertex 4.5 -21.1503 4.5
      vertex -4.5235 -21.1608 4.5235
      vertex 4.5235 -21.1608 4.5235
    endloop
  endfacet
  facet normal -4.31038e-08 0.913527 0.406778
    outer loop
      vertex -4.5235 -21.1608 4.5235
      vertex 4.5 -21.1503 4.5
      vertex -4.5 -21.1503 4.5
    endloop
  endfacet
  facet normal -6.22823e-08 0.809028 0.587769
    outer loop
      vertex 4.47856 -21.1347 4.47856
      vertex -4.5 -21.1503 4.5
      vertex 4.5 -21.1503 4.5
    endloop
  endfacet
  facet normal -3.12907e-08 0.809022 0.587778
    outer loop
      vertex 4.47856 -21.1347 4.47856
      vertex -4.47856 -21.1347 4.47856
      vertex -4.5 -21.1503 4.5
    endloop
  endfacet
  facet normal -3.1291e-08 0.809018 0.587784
    outer loop
      vertex -4.47856 -21.1347 4.47856
      vertex 4.47856 -21.1347 4.47856
      vertex 4.35407 -21.0443 4.35407
    endloop
  endfacet
  facet normal -0 0.500002 0.866024
    outer loop
      vertex -4.08645 -20.691 4.08645
      vertex 4.19098 -20.8721 4.19098
      vertex 4.08645 -20.691 4.08645
    endloop
  endfacet
  facet normal 0 0.500002 0.866024
    outer loop
      vertex 4.19098 -20.8721 4.19098
      vertex -4.08645 -20.691 4.08645
      vertex -4.19098 -20.8721 4.19098
    endloop
  endfacet
  facet normal -0 0.669126 0.743149
    outer loop
      vertex -4.19098 -20.8721 4.19098
      vertex 4.33087 -21.0274 4.33087
      vertex 4.19098 -20.8721 4.19098
    endloop
  endfacet
  facet normal 0 0.669126 0.743149
    outer loop
      vertex 4.33087 -21.0274 4.33087
      vertex -4.19098 -20.8721 4.19098
      vertex -4.33087 -21.0274 4.33087
    endloop
  endfacet
  facet normal 0 0.978151 0.207897
    outer loop
      vertex 4.69098 -21.2353 4.69098
      vertex -4.8 -21.2585 4.8
      vertex 4.8 -21.2585 4.8
    endloop
  endfacet
  facet normal 0 0.978151 0.207897
    outer loop
      vertex -4.8 -21.2585 4.8
      vertex 4.69098 -21.2353 4.69098
      vertex -4.69098 -21.2353 4.69098
    endloop
  endfacet
  facet normal 0.994522 -0.104524 0
    outer loop
      vertex 4.01824 -20.1107 -0.981756
      vertex 4.02185 -20.0764 -4.02185
      vertex 4.02185 -20.0764 -0.978148
    endloop
  endfacet
  facet normal 0.994522 -0.104524 0
    outer loop
      vertex 4.01824 -20.1107 -0.981756
      vertex 4.01824 -20.1107 -4.01824
      vertex 4.02185 -20.0764 -4.02185
    endloop
  endfacet
  facet normal 0.994521 -0.104534 0
    outer loop
      vertex 4.01824 -20.1107 -4.01824
      vertex 4.01824 -20.1107 -0.981756
      vertex 4.01272 -20.1632 -0.987276
    endloop
  endfacet
  facet normal 0.994522 -0.104524 0
    outer loop
      vertex 4.01824 -20.1107 4.01824
      vertex 4.02185 -20.0764 0.978148
      vertex 4.02185 -20.0764 4.02185
    endloop
  endfacet
  facet normal 0.994522 -0.104528 -4.70317e-08
    outer loop
      vertex 4.01824 -20.1107 4.01824
      vertex 4.00912 -20.1975 0.990878
      vertex 4.02185 -20.0764 0.978148
    endloop
  endfacet
  facet normal 0.994522 -0.104531 3.2994e-08
    outer loop
      vertex 4.00912 -20.1975 0.990878
      vertex 4.01824 -20.1107 4.01824
      vertex 4.00363 -20.2497 4.00363
    endloop
  endfacet
  facet normal 0.994522 -0.104527 1.24953e-07
    outer loop
      vertex 4.01272 -20.1632 -0.987276
      vertex 4.00363 -20.2497 -4.00363
      vertex 4.01824 -20.1107 -4.01824
    endloop
  endfacet
  facet normal 0.994522 -0.104523 1.66436e-08
    outer loop
      vertex 4 -20.2843 -0.999999
      vertex 4.00363 -20.2497 -4.00363
      vertex 4.01272 -20.1632 -0.987276
    endloop
  endfacet
  facet normal 0.994523 -0.104518 7.90376e-08
    outer loop
      vertex 4.00363 -20.2497 -4.00363
      vertex 4 -20.2843 -0.999999
      vertex 4 -20.2843 -4
    endloop
  endfacet
  facet normal 0.994522 -0.104524 1.57693e-07
    outer loop
      vertex 4.00363 -20.2497 4.00363
      vertex 4.00363 -20.2497 0.996365
      vertex 4.00912 -20.1975 0.990878
    endloop
  endfacet
  facet normal 0.994523 -0.104518 1.57693e-07
    outer loop
      vertex 4 -20.2843 4
      vertex 4.00363 -20.2497 0.996365
      vertex 4.00363 -20.2497 4.00363
    endloop
  endfacet
  facet normal 0.994522 -0.104525 7.90375e-08
    outer loop
      vertex 4.00363 -20.2497 0.996365
      vertex 4 -20.2843 4
      vertex 4 -20.2843 1
    endloop
  endfacet
  facet normal 0.587784 -0.809018 -2.21293e-07
    outer loop
      vertex 4.47856 -19.4338 -4.47856
      vertex 4.40708 -19.4858 -0.592922
      vertex 4.35407 -19.5243 -4.35407
    endloop
  endfacet
  facet normal 0.587789 -0.809015 -8.72939e-08
    outer loop
      vertex 4.40708 -19.4858 -0.592922
      vertex 4.47856 -19.4338 -4.47856
      vertex 4.5 -19.4182 -0.499999
    endloop
  endfacet
  facet normal 0.587769 -0.809028 7.00676e-08
    outer loop
      vertex 4.5 -19.4182 -0.499999
      vertex 4.47856 -19.4338 -4.47856
      vertex 4.5 -19.4182 -4.5
    endloop
  endfacet
  facet normal 0.587795 -0.80901 0
    outer loop
      vertex 4.47856 -19.4338 0.521444
      vertex 4.47856 -19.4338 4.47856
      vertex 4.42356 -19.4738 0.576441
    endloop
  endfacet
  facet normal 0.587778 -0.809022 0
    outer loop
      vertex 4.47856 -19.4338 4.47856
      vertex 4.47856 -19.4338 0.521444
      vertex 4.5 -19.4182 4.5
    endloop
  endfacet
  facet normal 0.587769 -0.809028 7.00676e-08
    outer loop
      vertex 4.5 -19.4182 4.5
      vertex 4.47856 -19.4338 0.521444
      vertex 4.5 -19.4182 0.5
    endloop
  endfacet
  facet normal 0.406723 -0.913551 4.84852e-08
    outer loop
      vertex 4.5235 -19.4078 -4.5235
      vertex 4.5 -19.4182 -0.499999
      vertex 4.5 -19.4182 -4.5
    endloop
  endfacet
  facet normal 0.406742 -0.913543 1.76657e-07
    outer loop
      vertex 4.5 -19.4182 -0.499999
      vertex 4.5235 -19.4078 -4.5235
      vertex 4.60183 -19.3729 -0.398171
    endloop
  endfacet
  facet normal 0.406739 -0.913545 2.44278e-07
    outer loop
      vertex 4.60183 -19.3729 -0.398171
      vertex 4.5235 -19.4078 -4.5235
      vertex 4.66981 -19.3426 -4.66981
    endloop
  endfacet
  facet normal 0.406716 -0.913555 4.84844e-08
    outer loop
      vertex 4.5 -19.4182 0.5
      vertex 4.5235 -19.4078 4.5235
      vertex 4.5 -19.4182 4.5
    endloop
  endfacet
  facet normal 0.406716 -0.913554 4.79213e-08
    outer loop
      vertex 4.5235 -19.4078 0.476501
      vertex 4.5235 -19.4078 4.5235
      vertex 4.5 -19.4182 0.5
    endloop
  endfacet
  facet normal 0.406739 -0.913545 4.7924e-08
    outer loop
      vertex 4.5235 -19.4078 4.5235
      vertex 4.5235 -19.4078 0.476501
      vertex 4.58895 -19.3786 0.41105
    endloop
  endfacet
  facet normal 0.406726 -0.91355 0
    outer loop
      vertex 4.66981 -19.3426 -4.66981
      vertex 4.66981 -19.3426 -0.330187
      vertex 4.60183 -19.3729 -0.398171
    endloop
  endfacet
  facet normal 0.406757 -0.913536 0
    outer loop
      vertex 4.66981 -19.3426 -4.66981
      vertex 4.69098 -19.3332 -0.309016
      vertex 4.66981 -19.3426 -0.330187
    endloop
  endfacet
  facet normal 0.406757 -0.913536 0
    outer loop
      vertex 4.69098 -19.3332 -0.309016
      vertex 4.66981 -19.3426 -4.66981
      vertex 4.69098 -19.3332 -4.69098
    endloop
  endfacet
  facet normal 0.406737 -0.913545 2.09426e-08
    outer loop
      vertex 4.58895 -19.3786 0.41105
      vertex 4.66981 -19.3426 4.66981
      vertex 4.5235 -19.4078 4.5235
    endloop
  endfacet
  facet normal 0.406742 -0.913543 -8.69836e-08
    outer loop
      vertex 4.69098 -19.3332 0.309016
      vertex 4.66981 -19.3426 4.66981
      vertex 4.58895 -19.3786 0.41105
    endloop
  endfacet
  facet normal 0.406757 -0.913536 0
    outer loop
      vertex 4.66981 -19.3426 4.66981
      vertex 4.69098 -19.3332 0.309016
      vertex 4.69098 -19.3332 4.69098
    endloop
  endfacet
  facet normal 0.207914 -0.978147 0
    outer loop
      vertex 4.69098 -19.3332 -4.69098
      vertex 4.8 -19.31 -0.2
      vertex 4.69098 -19.3332 -0.309016
    endloop
  endfacet
  facet normal 0.207914 -0.978147 0
    outer loop
      vertex 4.8 -19.31 -0.2
      vertex 4.69098 -19.3332 -4.69098
      vertex 4.8 -19.31 -4.8
    endloop
  endfacet
  facet normal 0.207914 -0.978147 0
    outer loop
      vertex 4.69098 -19.3332 0.309016
      vertex 4.8 -19.31 4.8
      vertex 4.69098 -19.3332 4.69098
    endloop
  endfacet
  facet normal 0.207914 -0.978147 0
    outer loop
      vertex 4.8 -19.31 4.8
      vertex 4.69098 -19.3332 0.309016
      vertex 4.8 -19.31 0.2
    endloop
  endfacet
  facet normal 0.743145 -0.66913 0
    outer loop
      vertex 4.19098 -19.6965 -0.809016
      vertex 4.33087 -19.5411 -4.33087
      vertex 4.33087 -19.5411 -0.66913
    endloop
  endfacet
  facet normal 0.743145 -0.66913 0
    outer loop
      vertex 4.33087 -19.5411 -4.33087
      vertex 4.19098 -19.6965 -0.809016
      vertex 4.19098 -19.6965 -4.19098
    endloop
  endfacet
  facet normal 0.743145 -0.66913 0
    outer loop
      vertex 4.19098 -19.6965 4.19098
      vertex 4.33087 -19.5411 0.66913
      vertex 4.33087 -19.5411 4.33087
    endloop
  endfacet
  facet normal 0.743145 -0.66913 0
    outer loop
      vertex 4.33087 -19.5411 0.66913
      vertex 4.19098 -19.6965 4.19098
      vertex 4.19098 -19.6965 0.809016
    endloop
  endfacet
  facet normal 0.587804 -0.809004 0
    outer loop
      vertex 4.33087 -19.5411 -4.33087
      vertex 4.35407 -19.5243 -0.645932
      vertex 4.33087 -19.5411 -0.66913
    endloop
  endfacet
  facet normal 0.587804 -0.809004 0
    outer loop
      vertex 4.35407 -19.5243 -4.35407
      vertex 4.35407 -19.5243 -0.645932
      vertex 4.33087 -19.5411 -4.33087
    endloop
  endfacet
  facet normal 0.587774 -0.809026 0
    outer loop
      vertex 4.35407 -19.5243 -0.645932
      vertex 4.35407 -19.5243 -4.35407
      vertex 4.40708 -19.4858 -0.592922
    endloop
  endfacet
  facet normal 0.587804 -0.809004 0
    outer loop
      vertex 4.33087 -19.5411 0.66913
      vertex 4.35407 -19.5243 4.35407
      vertex 4.33087 -19.5411 4.33087
    endloop
  endfacet
  facet normal 0.587785 -0.809017 1.83803e-07
    outer loop
      vertex 4.42356 -19.4738 0.576441
      vertex 4.35407 -19.5243 4.35407
      vertex 4.33087 -19.5411 0.66913
    endloop
  endfacet
  facet normal 0.587785 -0.809017 2.00402e-07
    outer loop
      vertex 4.35407 -19.5243 4.35407
      vertex 4.42356 -19.4738 0.576441
      vertex 4.47856 -19.4338 4.47856
    endloop
  endfacet
  facet normal 0.866024 -0.500002 0
    outer loop
      vertex 4.08645 -19.8775 -0.913545
      vertex 4.19098 -19.6965 -4.19098
      vertex 4.19098 -19.6965 -0.809016
    endloop
  endfacet
  facet normal 0.866024 -0.500002 0
    outer loop
      vertex 4.19098 -19.6965 -4.19098
      vertex 4.08645 -19.8775 -0.913545
      vertex 4.08645 -19.8775 -4.08645
    endloop
  endfacet
  facet normal 0.866024 -0.500002 0
    outer loop
      vertex 4.08645 -19.8775 4.08645
      vertex 4.19098 -19.6965 0.809016
      vertex 4.19098 -19.6965 4.19098
    endloop
  endfacet
  facet normal 0.866024 -0.500002 0
    outer loop
      vertex 4.19098 -19.6965 0.809016
      vertex 4.08645 -19.8775 4.08645
      vertex 4.08645 -19.8775 0.913545
    endloop
  endfacet
  facet normal 0.58776 0.809035 0
    outer loop
      vertex 4.35407 -21.0443 -0.645932
      vertex 4.33087 -21.0274 -4.33087
      vertex 4.33087 -21.0274 -0.66913
    endloop
  endfacet
  facet normal 0.587793 0.809012 -0
    outer loop
      vertex 4.35407 -21.0443 -4.35407
      vertex 4.35407 -21.0443 -0.645932
      vertex 4.40708 -21.0828 -0.592922
    endloop
  endfacet
  facet normal 0.58776 0.809035 0
    outer loop
      vertex 4.35407 -21.0443 -0.645932
      vertex 4.35407 -21.0443 -4.35407
      vertex 4.33087 -21.0274 -4.33087
    endloop
  endfacet
  facet normal 0.58776 0.809035 0
    outer loop
      vertex 4.35407 -21.0443 4.35407
      vertex 4.33087 -21.0274 0.66913
      vertex 4.33087 -21.0274 4.33087
    endloop
  endfacet
  facet normal 0.587786 0.809017 -2.00697e-07
    outer loop
      vertex 4.42356 -21.0948 0.576441
      vertex 4.35407 -21.0443 4.35407
      vertex 4.47856 -21.1347 4.47856
    endloop
  endfacet
  facet normal 0.587784 0.809018 -2.3233e-07
    outer loop
      vertex 4.35407 -21.0443 4.35407
      vertex 4.42356 -21.0948 0.576441
      vertex 4.33087 -21.0274 0.66913
    endloop
  endfacet
  facet normal 0.866024 0.500002 0
    outer loop
      vertex 4.19098 -20.8721 -0.809016
      vertex 4.08645 -20.691 -4.08645
      vertex 4.08645 -20.691 -0.913545
    endloop
  endfacet
  facet normal 0.866024 0.500002 0
    outer loop
      vertex 4.08645 -20.691 -4.08645
      vertex 4.19098 -20.8721 -0.809016
      vertex 4.19098 -20.8721 -4.19098
    endloop
  endfacet
  facet normal 0.866024 0.500002 0
    outer loop
      vertex 4.19098 -20.8721 4.19098
      vertex 4.08645 -20.691 0.913545
      vertex 4.08645 -20.691 4.08645
    endloop
  endfacet
  facet normal 0.866024 0.500002 0
    outer loop
      vertex 4.08645 -20.691 0.913545
      vertex 4.19098 -20.8721 4.19098
      vertex 4.19098 -20.8721 0.809016
    endloop
  endfacet
  facet normal 0.994523 0.104518 7.90376e-08
    outer loop
      vertex 4 -20.2843 -0.999999
      vertex 4.00363 -20.3189 -4.00363
      vertex 4 -20.2843 -4
    endloop
  endfacet
  facet normal 0.994522 0.104523 1.66436e-08
    outer loop
      vertex 4.01272 -20.4053 -0.987276
      vertex 4.00363 -20.3189 -4.00363
      vertex 4 -20.2843 -0.999999
    endloop
  endfacet
  facet normal 0.994522 0.104527 1.24953e-07
    outer loop
      vertex 4.00363 -20.3189 -4.00363
      vertex 4.01272 -20.4053 -0.987276
      vertex 4.01824 -20.4578 -4.01824
    endloop
  endfacet
  facet normal 0.994523 0.104518 7.90376e-08
    outer loop
      vertex 4.00363 -20.3189 4.00363
      vertex 4 -20.2843 1
      vertex 4 -20.2843 4
    endloop
  endfacet
  facet normal 0.994522 0.104525 1.57693e-07
    outer loop
      vertex 4.00363 -20.3189 4.00363
      vertex 4.00363 -20.3189 0.996365
      vertex 4 -20.2843 1
    endloop
  endfacet
  facet normal 0.994522 0.104524 1.57693e-07
    outer loop
      vertex 4.00363 -20.3189 0.996365
      vertex 4.00363 -20.3189 4.00363
      vertex 4.00912 -20.3711 0.990878
    endloop
  endfacet
  facet normal 0.951056 -0.309019 0
    outer loop
      vertex 4.02185 -20.0764 -0.978148
      vertex 4.08645 -19.8775 -4.08645
      vertex 4.08645 -19.8775 -0.913545
    endloop
  endfacet
  facet normal 0.951056 -0.309019 0
    outer loop
      vertex 4.08645 -19.8775 -4.08645
      vertex 4.02185 -20.0764 -0.978148
      vertex 4.02185 -20.0764 -4.02185
    endloop
  endfacet
  facet normal 0.951056 -0.309019 0
    outer loop
      vertex 4.02185 -20.0764 4.02185
      vertex 4.08645 -19.8775 0.913545
      vertex 4.08645 -19.8775 4.08645
    endloop
  endfacet
  facet normal 0.951056 -0.309019 0
    outer loop
      vertex 4.08645 -19.8775 0.913545
      vertex 4.02185 -20.0764 4.02185
      vertex 4.02185 -20.0764 0.978148
    endloop
  endfacet
  facet normal 0.207897 0.978151 0
    outer loop
      vertex 4.8 -21.2585 -0.2
      vertex 4.69098 -21.2353 -4.69098
      vertex 4.69098 -21.2353 -0.309016
    endloop
  endfacet
  facet normal 0.207897 0.978151 0
    outer loop
      vertex 4.69098 -21.2353 -4.69098
      vertex 4.8 -21.2585 -0.2
      vertex 4.8 -21.2585 -4.8
    endloop
  endfacet
  facet normal 0.207897 0.978151 0
    outer loop
      vertex 4.8 -21.2585 4.8
      vertex 4.69098 -21.2353 0.309016
      vertex 4.69098 -21.2353 4.69098
    endloop
  endfacet
  facet normal 0.207897 0.978151 0
    outer loop
      vertex 4.69098 -21.2353 0.309016
      vertex 4.8 -21.2585 4.8
      vertex 4.8 -21.2585 0.2
    endloop
  endfacet
  facet normal 0.406742 0.913543 -2.53896e-07
    outer loop
      vertex 4.5235 -21.1608 -4.5235
      vertex 4.5 -21.1503 -0.499999
      vertex 4.60183 -21.1956 -0.398171
    endloop
  endfacet
  facet normal 0.406785 0.913524 4.84926e-08
    outer loop
      vertex 4.5 -21.1503 -0.499999
      vertex 4.5235 -21.1608 -4.5235
      vertex 4.5 -21.1503 -4.5
    endloop
  endfacet
  facet normal 0.406738 0.913545 -1.7023e-07
    outer loop
      vertex 4.5235 -21.1608 -4.5235
      vertex 4.60183 -21.1956 -0.398171
      vertex 4.66981 -21.2259 -4.66981
    endloop
  endfacet
  facet normal 0.406778 0.913527 4.84917e-08
    outer loop
      vertex 4.5235 -21.1608 4.5235
      vertex 4.5 -21.1503 0.5
      vertex 4.5 -21.1503 4.5
    endloop
  endfacet
  facet normal 0.406778 0.913527 4.79286e-08
    outer loop
      vertex 4.5235 -21.1608 4.5235
      vertex 4.5235 -21.1608 0.476501
      vertex 4.5 -21.1503 0.5
    endloop
  endfacet
  facet normal 0.406739 0.913545 4.7924e-08
    outer loop
      vertex 4.5235 -21.1608 0.476501
      vertex 4.5235 -21.1608 4.5235
      vertex 4.58895 -21.1899 0.41105
    endloop
  endfacet
  facet normal 0.587778 0.809023 2.69344e-09
    outer loop
      vertex 4.47856 -21.1347 -4.47856
      vertex 4.40708 -21.0828 -0.592922
      vertex 4.5 -21.1503 -0.499999
    endloop
  endfacet
  facet normal 0.587784 0.809018 1.83273e-07
    outer loop
      vertex 4.40708 -21.0828 -0.592922
      vertex 4.47856 -21.1347 -4.47856
      vertex 4.35407 -21.0443 -4.35407
    endloop
  endfacet
  facet normal 0.587769 0.809028 7.00676e-08
    outer loop
      vertex 4.47856 -21.1347 -4.47856
      vertex 4.5 -21.1503 -0.499999
      vertex 4.5 -21.1503 -4.5
    endloop
  endfacet
  facet normal 0.587778 0.809022 -0
    outer loop
      vertex 4.47856 -21.1347 0.521444
      vertex 4.47856 -21.1347 4.47856
      vertex 4.5 -21.1503 4.5
    endloop
  endfacet
  facet normal 0.587776 0.809024 0
    outer loop
      vertex 4.47856 -21.1347 4.47856
      vertex 4.47856 -21.1347 0.521444
      vertex 4.42356 -21.0948 0.576441
    endloop
  endfacet
  facet normal 0.587769 0.809028 7.00676e-08
    outer loop
      vertex 4.47856 -21.1347 0.521444
      vertex 4.5 -21.1503 4.5
      vertex 4.5 -21.1503 0.5
    endloop
  endfacet
  facet normal 0.743149 0.669126 0
    outer loop
      vertex 4.33087 -21.0274 -0.66913
      vertex 4.19098 -20.8721 -4.19098
      vertex 4.19098 -20.8721 -0.809016
    endloop
  endfacet
  facet normal 0.743149 0.669126 0
    outer loop
      vertex 4.19098 -20.8721 -4.19098
      vertex 4.33087 -21.0274 -0.66913
      vertex 4.33087 -21.0274 -4.33087
    endloop
  endfacet
  facet normal 0.743149 0.669126 0
    outer loop
      vertex 4.33087 -21.0274 4.33087
      vertex 4.19098 -20.8721 0.809016
      vertex 4.19098 -20.8721 4.19098
    endloop
  endfacet
  facet normal 0.743149 0.669126 0
    outer loop
      vertex 4.19098 -20.8721 0.809016
      vertex 4.33087 -21.0274 4.33087
      vertex 4.33087 -21.0274 0.66913
    endloop
  endfacet
  facet normal 0.994521 0.104534 0
    outer loop
      vertex 4.01824 -20.4578 -0.981756
      vertex 4.01824 -20.4578 -4.01824
      vertex 4.01272 -20.4053 -0.987276
    endloop
  endfacet
  facet normal 0.994522 0.104524 0
    outer loop
      vertex 4.02185 -20.4922 -0.978148
      vertex 4.01824 -20.4578 -4.01824
      vertex 4.01824 -20.4578 -0.981756
    endloop
  endfacet
  facet normal 0.994522 0.104524 0
    outer loop
      vertex 4.01824 -20.4578 -4.01824
      vertex 4.02185 -20.4922 -0.978148
      vertex 4.02185 -20.4922 -4.02185
    endloop
  endfacet
  facet normal 0.994522 0.104531 3.2994e-08
    outer loop
      vertex 4.01824 -20.4578 4.01824
      vertex 4.00912 -20.3711 0.990878
      vertex 4.00363 -20.3189 4.00363
    endloop
  endfacet
  facet normal 0.994522 0.104524 -0
    outer loop
      vertex 4.02185 -20.4922 0.978148
      vertex 4.01824 -20.4578 4.01824
      vertex 4.02185 -20.4922 4.02185
    endloop
  endfacet
  facet normal 0.994522 0.104528 -4.70317e-08
    outer loop
      vertex 4.01824 -20.4578 4.01824
      vertex 4.02185 -20.4922 0.978148
      vertex 4.00912 -20.3711 0.990878
    endloop
  endfacet
  facet normal 0.951055 0.309021 0
    outer loop
      vertex 4.08645 -20.691 -0.913545
      vertex 4.02185 -20.4922 -4.02185
      vertex 4.02185 -20.4922 -0.978148
    endloop
  endfacet
  facet normal 0.951055 0.309021 0
    outer loop
      vertex 4.02185 -20.4922 -4.02185
      vertex 4.08645 -20.691 -0.913545
      vertex 4.08645 -20.691 -4.08645
    endloop
  endfacet
  facet normal 0.951055 0.309021 0
    outer loop
      vertex 4.08645 -20.691 4.08645
      vertex 4.02185 -20.4922 0.978148
      vertex 4.02185 -20.4922 4.02185
    endloop
  endfacet
  facet normal 0.951055 0.309021 0
    outer loop
      vertex 4.02185 -20.4922 0.978148
      vertex 4.08645 -20.691 4.08645
      vertex 4.08645 -20.691 0.913545
    endloop
  endfacet
  facet normal 0.406747 0.913541 0
    outer loop
      vertex 4.66981 -21.2259 -0.330187
      vertex 4.66981 -21.2259 -4.66981
      vertex 4.60183 -21.1956 -0.398171
    endloop
  endfacet
  facet normal 0.406757 0.913536 0
    outer loop
      vertex 4.69098 -21.2353 -0.309016
      vertex 4.66981 -21.2259 -4.66981
      vertex 4.66981 -21.2259 -0.330187
    endloop
  endfacet
  facet normal 0.406757 0.913536 0
    outer loop
      vertex 4.66981 -21.2259 -4.66981
      vertex 4.69098 -21.2353 -0.309016
      vertex 4.69098 -21.2353 -4.69098
    endloop
  endfacet
  facet normal 0.406737 0.913545 2.09426e-08
    outer loop
      vertex 4.66981 -21.2259 4.66981
      vertex 4.58895 -21.1899 0.41105
      vertex 4.5235 -21.1608 4.5235
    endloop
  endfacet
  facet normal 0.406757 0.913536 -0
    outer loop
      vertex 4.69098 -21.2353 0.309016
      vertex 4.66981 -21.2259 4.66981
      vertex 4.69098 -21.2353 4.69098
    endloop
  endfacet
  facet normal 0.406742 0.913543 -8.69836e-08
    outer loop
      vertex 4.66981 -21.2259 4.66981
      vertex 4.69098 -21.2353 0.309016
      vertex 4.58895 -21.1899 0.41105
    endloop
  endfacet
  facet normal 0 -0.104531 -0.994522
    outer loop
      vertex -4.01824 -20.1107 -4.01824
      vertex 4.01824 -20.1107 -4.01824
      vertex 4.00363 -20.2497 -4.00363
    endloop
  endfacet
  facet normal -0 -0.104524 -0.994522
    outer loop
      vertex 4.01824 -20.1107 -4.01824
      vertex -4.01824 -20.1107 -4.01824
      vertex 4.02185 -20.0764 -4.02185
    endloop
  endfacet
  facet normal -0 -0.104524 -0.994522
    outer loop
      vertex 4.02185 -20.0764 -4.02185
      vertex -4.01824 -20.1107 -4.01824
      vertex -4.02185 -20.0764 -4.02185
    endloop
  endfacet
  facet normal 5.92782e-08 -0.104518 -0.994523
    outer loop
      vertex -4 -20.2843 -4
      vertex 4.00363 -20.2497 -4.00363
      vertex 4 -20.2843 -4
    endloop
  endfacet
  facet normal 9.10501e-08 -0.104525 -0.994522
    outer loop
      vertex 4.00363 -20.2497 -4.00363
      vertex -4 -20.2843 -4
      vertex -4.01824 -20.1107 -4.01824
    endloop
  endfacet
  facet normal 0 -0.309019 -0.951056
    outer loop
      vertex -4.02185 -20.0764 -4.02185
      vertex 4.08645 -19.8775 -4.08645
      vertex 4.02185 -20.0764 -4.02185
    endloop
  endfacet
  facet normal -0 -0.309019 -0.951056
    outer loop
      vertex 4.08645 -19.8775 -4.08645
      vertex -4.02185 -20.0764 -4.02185
      vertex -4.08645 -19.8775 -4.08645
    endloop
  endfacet
  facet normal 4.30972e-08 -0.913555 -0.406716
    outer loop
      vertex -4.5 -19.4182 -4.5
      vertex 4.5235 -19.4078 -4.5235
      vertex 4.5 -19.4182 -4.5
    endloop
  endfacet
  facet normal -1.92674e-08 -0.913546 -0.406736
    outer loop
      vertex 4.5235 -19.4078 -4.5235
      vertex -4.5 -19.4182 -4.5
      vertex -4.66981 -19.3426 -4.66981
    endloop
  endfacet
  facet normal 0 -0.809004 -0.587804
    outer loop
      vertex -4.35407 -19.5243 -4.35407
      vertex 4.33087 -19.5411 -4.33087
      vertex -4.33087 -19.5411 -4.33087
    endloop
  endfacet
  facet normal 0 -0.809004 -0.587804
    outer loop
      vertex -4.35407 -19.5243 -4.35407
      vertex 4.35407 -19.5243 -4.35407
      vertex 4.33087 -19.5411 -4.33087
    endloop
  endfacet
  facet normal -0 -0.809017 -0.587785
    outer loop
      vertex 4.35407 -19.5243 -4.35407
      vertex -4.35407 -19.5243 -4.35407
      vertex 4.47856 -19.4338 -4.47856
    endloop
  endfacet
  facet normal 0 0.669126 -0.743149
    outer loop
      vertex 4.33087 -21.0274 -4.33087
      vertex -4.19098 -20.8721 -4.19098
      vertex 4.19098 -20.8721 -4.19098
    endloop
  endfacet
  facet normal 0 0.669126 -0.743149
    outer loop
      vertex -4.19098 -20.8721 -4.19098
      vertex 4.33087 -21.0274 -4.33087
      vertex -4.33087 -21.0274 -4.33087
    endloop
  endfacet
  facet normal 0 -0.913545 -0.406737
    outer loop
      vertex -4.66981 -19.3426 -4.66981
      vertex 4.66981 -19.3426 -4.66981
      vertex 4.5235 -19.4078 -4.5235
    endloop
  endfacet
  facet normal 0 -0.913536 -0.406757
    outer loop
      vertex -4.69098 -19.3332 -4.69098
      vertex 4.66981 -19.3426 -4.66981
      vertex -4.66981 -19.3426 -4.66981
    endloop
  endfacet
  facet normal 0 -0.913536 -0.406757
    outer loop
      vertex 4.66981 -19.3426 -4.66981
      vertex -4.69098 -19.3332 -4.69098
      vertex 4.69098 -19.3332 -4.69098
    endloop
  endfacet
  facet normal 7.66365e-08 -0.809019 -0.587782
    outer loop
      vertex -4.5 -19.4182 -4.5
      vertex 4.47856 -19.4338 -4.47856
      vertex -4.35407 -19.5243 -4.35407
    endloop
  endfacet
  facet normal 6.22832e-08 -0.809022 -0.587778
    outer loop
      vertex 4.47856 -19.4338 -4.47856
      vertex -4.5 -19.4182 -4.5
      vertex 4.5 -19.4182 -4.5
    endloop
  endfacet
  facet normal 0 0.913545 -0.406737
    outer loop
      vertex 4.66981 -21.2259 -4.66981
      vertex -4.66981 -21.2259 -4.66981
      vertex 4.5235 -21.1608 -4.5235
    endloop
  endfacet
  facet normal 0 0.913536 -0.406757
    outer loop
      vertex 4.69098 -21.2353 -4.69098
      vertex -4.66981 -21.2259 -4.66981
      vertex 4.66981 -21.2259 -4.66981
    endloop
  endfacet
  facet normal 0 0.913536 -0.406757
    outer loop
      vertex -4.66981 -21.2259 -4.66981
      vertex 4.69098 -21.2353 -4.69098
      vertex -4.69098 -21.2353 -4.69098
    endloop
  endfacet
  facet normal 0 0.809035 -0.58776
    outer loop
      vertex 4.35407 -21.0443 -4.35407
      vertex -4.33087 -21.0274 -4.33087
      vertex 4.33087 -21.0274 -4.33087
    endloop
  endfacet
  facet normal 0 0.809035 -0.58776
    outer loop
      vertex 4.35407 -21.0443 -4.35407
      vertex -4.35407 -21.0443 -4.35407
      vertex -4.33087 -21.0274 -4.33087
    endloop
  endfacet
  facet normal 0 0.809017 -0.587785
    outer loop
      vertex -4.35407 -21.0443 -4.35407
      vertex 4.35407 -21.0443 -4.35407
      vertex 4.47856 -21.1347 -4.47856
    endloop
  endfacet
  facet normal 0 0.309021 -0.951055
    outer loop
      vertex 4.08645 -20.691 -4.08645
      vertex -4.02185 -20.4922 -4.02185
      vertex 4.02185 -20.4922 -4.02185
    endloop
  endfacet
  facet normal 0 0.309021 -0.951055
    outer loop
      vertex -4.02185 -20.4922 -4.02185
      vertex 4.08645 -20.691 -4.08645
      vertex -4.08645 -20.691 -4.08645
    endloop
  endfacet
  facet normal 0 -0.978147 -0.207914
    outer loop
      vertex -4.8 -19.31 -4.8
      vertex 4.69098 -19.3332 -4.69098
      vertex -4.69098 -19.3332 -4.69098
    endloop
  endfacet
  facet normal 0 -0.978147 -0.207914
    outer loop
      vertex 4.69098 -19.3332 -4.69098
      vertex -4.8 -19.31 -4.8
      vertex 4.8 -19.31 -4.8
    endloop
  endfacet
  facet normal 0 -0.66913 -0.743145
    outer loop
      vertex -4.19098 -19.6965 -4.19098
      vertex 4.33087 -19.5411 -4.33087
      vertex 4.19098 -19.6965 -4.19098
    endloop
  endfacet
  facet normal -0 -0.66913 -0.743145
    outer loop
      vertex 4.33087 -19.5411 -4.33087
      vertex -4.19098 -19.6965 -4.19098
      vertex -4.33087 -19.5411 -4.33087
    endloop
  endfacet
  facet normal 0 0.500002 -0.866024
    outer loop
      vertex 4.19098 -20.8721 -4.19098
      vertex -4.08645 -20.691 -4.08645
      vertex 4.08645 -20.691 -4.08645
    endloop
  endfacet
  facet normal 0 0.500002 -0.866024
    outer loop
      vertex -4.08645 -20.691 -4.08645
      vertex 4.19098 -20.8721 -4.19098
      vertex -4.19098 -20.8721 -4.19098
    endloop
  endfacet
  facet normal 0 0.104524 -0.994522
    outer loop
      vertex -4.01824 -20.4578 -4.01824
      vertex 4.01824 -20.4578 -4.01824
      vertex 4.02185 -20.4922 -4.02185
    endloop
  endfacet
  facet normal 0 0.104531 -0.994522
    outer loop
      vertex 4.01824 -20.4578 -4.01824
      vertex -4.01824 -20.4578 -4.01824
      vertex 4.00363 -20.3189 -4.00363
    endloop
  endfacet
  facet normal 0 0.104524 -0.994522
    outer loop
      vertex -4.01824 -20.4578 -4.01824
      vertex 4.02185 -20.4922 -4.02185
      vertex -4.02185 -20.4922 -4.02185
    endloop
  endfacet
  facet normal 5.92782e-08 0.104518 -0.994523
    outer loop
      vertex 4.00363 -20.3189 -4.00363
      vertex -4 -20.2843 -4
      vertex 4 -20.2843 -4
    endloop
  endfacet
  facet normal 9.10501e-08 0.104525 -0.994522
    outer loop
      vertex -4 -20.2843 -4
      vertex 4.00363 -20.3189 -4.00363
      vertex -4.01824 -20.4578 -4.01824
    endloop
  endfacet
  facet normal 0 -0.500002 -0.866024
    outer loop
      vertex -4.08645 -19.8775 -4.08645
      vertex 4.19098 -19.6965 -4.19098
      vertex 4.08645 -19.8775 -4.08645
    endloop
  endfacet
  facet normal -0 -0.500002 -0.866024
    outer loop
      vertex 4.19098 -19.6965 -4.19098
      vertex -4.08645 -19.8775 -4.08645
      vertex -4.19098 -19.6965 -4.19098
    endloop
  endfacet
  facet normal 4.31038e-08 0.913527 -0.406778
    outer loop
      vertex 4.5235 -21.1608 -4.5235
      vertex -4.5 -21.1503 -4.5
      vertex 4.5 -21.1503 -4.5
    endloop
  endfacet
  facet normal 1.46681e-07 0.913542 -0.406745
    outer loop
      vertex -4.5 -21.1503 -4.5
      vertex 4.5235 -21.1608 -4.5235
      vertex -4.66981 -21.2259 -4.66981
    endloop
  endfacet
  facet normal 6.22832e-08 0.809022 -0.587778
    outer loop
      vertex -4.5 -21.1503 -4.5
      vertex 4.47856 -21.1347 -4.47856
      vertex 4.5 -21.1503 -4.5
    endloop
  endfacet
  facet normal 7.66365e-08 0.809019 -0.587782
    outer loop
      vertex 4.47856 -21.1347 -4.47856
      vertex -4.5 -21.1503 -4.5
      vertex -4.35407 -21.0443 -4.35407
    endloop
  endfacet
  facet normal 0 0.978151 -0.207897
    outer loop
      vertex 4.8 -21.2585 -4.8
      vertex -4.69098 -21.2353 -4.69098
      vertex 4.69098 -21.2353 -4.69098
    endloop
  endfacet
  facet normal 0 0.978151 -0.207897
    outer loop
      vertex -4.69098 -21.2353 -4.69098
      vertex 4.8 -21.2585 -4.8
      vertex -4.8 -21.2585 -4.8
    endloop
  endfacet
  facet normal -1 0 0
    outer loop
      vertex -4.8 -23.2843 -4.8
      vertex -4.8 -21.2585 -0.2
      vertex -4.8 -21.2585 -4.8
    endloop
  endfacet
  facet normal -1 -0 0
    outer loop
      vertex -4.8 -21.2788 -0.104528
      vertex -4.8 -23.2843 -4.8
      vertex -4.8 -21.2788 0.104528
    endloop
  endfacet
  facet normal -1 -0 0
    outer loop
      vertex -4.8 -21.2585 -0.2
      vertex -4.8 -23.2843 -4.8
      vertex -4.8 -21.2788 -0.104528
    endloop
  endfacet
  facet normal -1 0 0
    outer loop
      vertex -4.8 -23.2843 4.8
      vertex -4.8 -21.2585 0.2
      vertex -4.8 -21.2788 0.104528
    endloop
  endfacet
  facet normal -1 0 0
    outer loop
      vertex -4.8 -23.2843 4.8
      vertex -4.8 -21.2788 0.104528
      vertex -4.8 -23.2843 -4.8
    endloop
  endfacet
  facet normal -1 0 0
    outer loop
      vertex -4.8 -21.2585 0.2
      vertex -4.8 -23.2843 4.8
      vertex -4.8 -21.2585 4.8
    endloop
  endfacet
  facet normal -1 0 0
    outer loop
      vertex -4.8 15 -4.8
      vertex -4.8 -19.2897 -0.104528
      vertex -4.8 15 4.8
    endloop
  endfacet
  facet normal -1 0 0
    outer loop
      vertex -4.8 -19.31 -4.8
      vertex -4.8 -19.2897 -0.104528
      vertex -4.8 15 -4.8
    endloop
  endfacet
  facet normal -1 0 0
    outer loop
      vertex -4.8 -19.2897 -0.104528
      vertex -4.8 -19.31 -4.8
      vertex -4.8 -19.31 -0.2
    endloop
  endfacet
  facet normal -1 0 0
    outer loop
      vertex -4.8 -19.2897 0.104528
      vertex -4.8 15 4.8
      vertex -4.8 -19.2897 -0.104528
    endloop
  endfacet
  facet normal -1 0 0
    outer loop
      vertex -4.8 -19.31 4.8
      vertex -4.8 -19.2897 0.104528
      vertex -4.8 -19.31 0.2
    endloop
  endfacet
  facet normal -1 0 0
    outer loop
      vertex -4.8 -19.2897 0.104528
      vertex -4.8 -19.31 4.8
      vertex -4.8 15 4.8
    endloop
  endfacet
  facet normal -0 0 1
    outer loop
      vertex -4.8 -21.2585 4.8
      vertex 4.8 -23.2843 4.8
      vertex 4.8 -21.2585 4.8
    endloop
  endfacet
  facet normal 0 0 1
    outer loop
      vertex 4.8 -23.2843 4.8
      vertex -4.8 -21.2585 4.8
      vertex -4.8 -23.2843 4.8
    endloop
  endfacet
  facet normal 0 0 1
    outer loop
      vertex 4.8 15 4.8
      vertex 1.5 0 4.8
      vertex 4.8 -19.31 4.8
    endloop
  endfacet
  facet normal 0 0 1
    outer loop
      vertex 4.8 15 4.8
      vertex 1.46722 0.311867 4.8
      vertex 1.5 0 4.8
    endloop
  endfacet
  facet normal 0 0 1
    outer loop
      vertex 4.8 15 4.8
      vertex 1.37032 0.610105 4.8
      vertex 1.46722 0.311867 4.8
    endloop
  endfacet
  facet normal 0 0 1
    outer loop
      vertex 4.8 15 4.8
      vertex 1.21352 0.881678 4.8
      vertex 1.37032 0.610105 4.8
    endloop
  endfacet
  facet normal 0 0 1
    outer loop
      vertex 4.8 15 4.8
      vertex 1.0037 1.11472 4.8
      vertex 1.21352 0.881678 4.8
    endloop
  endfacet
  facet normal 0 0 1
    outer loop
      vertex 4.8 15 4.8
      vertex 0.75 1.29904 4.8
      vertex 1.0037 1.11472 4.8
    endloop
  endfacet
  facet normal 0 0 1
    outer loop
      vertex 4.8 15 4.8
      vertex 0.463525 1.42658 4.8
      vertex 0.75 1.29904 4.8
    endloop
  endfacet
  facet normal 0 0 1
    outer loop
      vertex 4.8 15 4.8
      vertex 0.156793 1.49178 4.8
      vertex 0.463525 1.42658 4.8
    endloop
  endfacet
  facet normal 0 0 1
    outer loop
      vertex 4.8 15 4.8
      vertex -0.156793 1.49178 4.8
      vertex 0.156793 1.49178 4.8
    endloop
  endfacet
  facet normal -0 0 1
    outer loop
      vertex -4.8 15 4.8
      vertex -0.156793 1.49178 4.8
      vertex 4.8 15 4.8
    endloop
  endfacet
  facet normal 0 0 1
    outer loop
      vertex -0.156793 1.49178 4.8
      vertex -4.8 15 4.8
      vertex -0.463525 1.42658 4.8
    endloop
  endfacet
  facet normal 0 0 1
    outer loop
      vertex -0.463525 1.42658 4.8
      vertex -4.8 15 4.8
      vertex -0.749999 1.29904 4.8
    endloop
  endfacet
  facet normal 0 0 1
    outer loop
      vertex -0.749999 1.29904 4.8
      vertex -4.8 15 4.8
      vertex -1.0037 1.11472 4.8
    endloop
  endfacet
  facet normal 0 0 1
    outer loop
      vertex -1.0037 1.11472 4.8
      vertex -4.8 15 4.8
      vertex -1.21352 0.881678 4.8
    endloop
  endfacet
  facet normal 0 0 1
    outer loop
      vertex -1.46722 0.311867 4.8
      vertex -4.8 15 4.8
      vertex -1.5 0 4.8
    endloop
  endfacet
  facet normal 0 0 1
    outer loop
      vertex -1.37032 0.610105 4.8
      vertex -4.8 15 4.8
      vertex -1.46722 0.311867 4.8
    endloop
  endfacet
  facet normal 0 0 1
    outer loop
      vertex -1.21352 0.881678 4.8
      vertex -4.8 15 4.8
      vertex -1.37032 0.610105 4.8
    endloop
  endfacet
  facet normal -0 0 1
    outer loop
      vertex 1.46722 -0.311867 4.8
      vertex 4.8 -19.31 4.8
      vertex 1.5 0 4.8
    endloop
  endfacet
  facet normal -0 0 1
    outer loop
      vertex 1.37032 -0.610105 4.8
      vertex 4.8 -19.31 4.8
      vertex 1.46722 -0.311867 4.8
    endloop
  endfacet
  facet normal -0 0 1
    outer loop
      vertex 1.21352 -0.881678 4.8
      vertex 4.8 -19.31 4.8
      vertex 1.37032 -0.610105 4.8
    endloop
  endfacet
  facet normal -0 0 1
    outer loop
      vertex 1.0037 -1.11472 4.8
      vertex 4.8 -19.31 4.8
      vertex 1.21352 -0.881678 4.8
    endloop
  endfacet
  facet normal -0 0 1
    outer loop
      vertex 0.75 -1.29904 4.8
      vertex 4.8 -19.31 4.8
      vertex 1.0037 -1.11472 4.8
    endloop
  endfacet
  facet normal -0 0 1
    outer loop
      vertex 0.463525 -1.42658 4.8
      vertex 4.8 -19.31 4.8
      vertex 0.75 -1.29904 4.8
    endloop
  endfacet
  facet normal -0 0 1
    outer loop
      vertex 0.156793 -1.49178 4.8
      vertex 4.8 -19.31 4.8
      vertex 0.463525 -1.42658 4.8
    endloop
  endfacet
  facet normal -0 0 1
    outer loop
      vertex -0.156793 -1.49178 4.8
      vertex 4.8 -19.31 4.8
      vertex 0.156793 -1.49178 4.8
    endloop
  endfacet
  facet normal 0 0 1
    outer loop
      vertex -4.8 -19.31 4.8
      vertex -0.156793 -1.49178 4.8
      vertex -0.463525 -1.42658 4.8
    endloop
  endfacet
  facet normal 0 0 1
    outer loop
      vertex -4.8 -19.31 4.8
      vertex -0.463525 -1.42658 4.8
      vertex -0.75 -1.29904 4.8
    endloop
  endfacet
  facet normal 0 0 1
    outer loop
      vertex -4.8 -19.31 4.8
      vertex -0.75 -1.29904 4.8
      vertex -1.0037 -1.11472 4.8
    endloop
  endfacet
  facet normal 0 0 1
    outer loop
      vertex -4.8 -19.31 4.8
      vertex -1.0037 -1.11472 4.8
      vertex -1.21352 -0.881678 4.8
    endloop
  endfacet
  facet normal 0 0 1
    outer loop
      vertex -4.8 -19.31 4.8
      vertex -1.21352 -0.881678 4.8
      vertex -1.37032 -0.610105 4.8
    endloop
  endfacet
  facet normal 0 0 1
    outer loop
      vertex -4.8 -19.31 4.8
      vertex -1.5 0 4.8
      vertex -4.8 15 4.8
    endloop
  endfacet
  facet normal 0 0 1
    outer loop
      vertex -0.156793 -1.49178 4.8
      vertex -4.8 -19.31 4.8
      vertex 4.8 -19.31 4.8
    endloop
  endfacet
  facet normal 0 0 1
    outer loop
      vertex -1.46722 -0.311867 4.8
      vertex -4.8 -19.31 4.8
      vertex -1.37032 -0.610105 4.8
    endloop
  endfacet
  facet normal 0 0 1
    outer loop
      vertex -1.5 0 4.8
      vertex -4.8 -19.31 4.8
      vertex -1.46722 -0.311867 4.8
    endloop
  endfacet
  facet normal 1 -0 0
    outer loop
      vertex 4.8 -23.2843 4.8
      vertex 4.8 -21.2585 0.2
      vertex 4.8 -21.2585 4.8
    endloop
  endfacet
  facet normal 1 0 0
    outer loop
      vertex 4.8 -21.2788 0.104528
      vertex 4.8 -23.2843 4.8
      vertex 4.8 -21.2788 -0.104528
    endloop
  endfacet
  facet normal 1 0 0
    outer loop
      vertex 4.8 -21.2585 0.2
      vertex 4.8 -23.2843 4.8
      vertex 4.8 -21.2788 0.104528
    endloop
  endfacet
  facet normal 1 0 0
    outer loop
      vertex 4.8 -23.2843 -4.8
      vertex 4.8 -21.2585 -0.2
      vertex 4.8 -21.2788 -0.104528
    endloop
  endfacet
  facet normal 1 0 0
    outer loop
      vertex 4.8 -23.2843 -4.8
      vertex 4.8 -21.2788 -0.104528
      vertex 4.8 -23.2843 4.8
    endloop
  endfacet
  facet normal 1 0 0
    outer loop
      vertex 4.8 -21.2585 -0.2
      vertex 4.8 -23.2843 -4.8
      vertex 4.8 -21.2585 -4.8
    endloop
  endfacet
  facet normal 1 0 0
    outer loop
      vertex 4.8 15 4.8
      vertex 4.8 -19.2897 0.104528
      vertex 4.8 15 -4.8
    endloop
  endfacet
  facet normal 1 -0 0
    outer loop
      vertex 4.8 -19.31 4.8
      vertex 4.8 -19.2897 0.104528
      vertex 4.8 15 4.8
    endloop
  endfacet
  facet normal 1 0 0
    outer loop
      vertex 4.8 -19.2897 0.104528
      vertex 4.8 -19.31 4.8
      vertex 4.8 -19.31 0.2
    endloop
  endfacet
  facet normal 1 -0 0
    outer loop
      vertex 4.8 -19.2897 -0.104528
      vertex 4.8 15 -4.8
      vertex 4.8 -19.2897 0.104528
    endloop
  endfacet
  facet normal 1 0 0
    outer loop
      vertex 4.8 -19.31 -4.8
      vertex 4.8 -19.2897 -0.104528
      vertex 4.8 -19.31 -0.2
    endloop
  endfacet
  facet normal 1 0 0
    outer loop
      vertex 4.8 -19.2897 -0.104528
      vertex 4.8 -19.31 -4.8
      vertex 4.8 15 -4.8
    endloop
  endfacet
  facet normal 0 0 -1
    outer loop
      vertex -4.8 -23.2843 -4.8
      vertex 4.8 -21.2585 -4.8
      vertex 4.8 -23.2843 -4.8
    endloop
  endfacet
  facet normal -0 0 -1
    outer loop
      vertex 4.8 -21.2585 -4.8
      vertex -4.8 -23.2843 -4.8
      vertex -4.8 -21.2585 -4.8
    endloop
  endfacet
  facet normal 0 0 -1
    outer loop
      vertex 4.8 -19.31 -4.8
      vertex 1.5 0 -4.8
      vertex 4.8 15 -4.8
    endloop
  endfacet
  facet normal 0 0 -1
    outer loop
      vertex 4.8 -19.31 -4.8
      vertex 1.46722 -0.311867 -4.8
      vertex 1.5 0 -4.8
    endloop
  endfacet
  facet normal 0 0 -1
    outer loop
      vertex 4.8 -19.31 -4.8
      vertex 1.37032 -0.610105 -4.8
      vertex 1.46722 -0.311867 -4.8
    endloop
  endfacet
  facet normal 0 0 -1
    outer loop
      vertex 4.8 -19.31 -4.8
      vertex 1.21352 -0.881678 -4.8
      vertex 1.37032 -0.610105 -4.8
    endloop
  endfacet
  facet normal 0 0 -1
    outer loop
      vertex 4.8 -19.31 -4.8
      vertex 1.0037 -1.11472 -4.8
      vertex 1.21352 -0.881678 -4.8
    endloop
  endfacet
  facet normal 0 0 -1
    outer loop
      vertex 4.8 -19.31 -4.8
      vertex 0.75 -1.29904 -4.8
      vertex 1.0037 -1.11472 -4.8
    endloop
  endfacet
  facet normal 0 0 -1
    outer loop
      vertex 4.8 -19.31 -4.8
      vertex 0.463525 -1.42658 -4.8
      vertex 0.75 -1.29904 -4.8
    endloop
  endfacet
  facet normal 0 0 -1
    outer loop
      vertex 4.8 -19.31 -4.8
      vertex 0.156793 -1.49178 -4.8
      vertex 0.463525 -1.42658 -4.8
    endloop
  endfacet
  facet normal 0 0 -1
    outer loop
      vertex 4.8 -19.31 -4.8
      vertex -0.156793 -1.49178 -4.8
      vertex 0.156793 -1.49178 -4.8
    endloop
  endfacet
  facet normal 0 0 -1
    outer loop
      vertex -4.8 -19.31 -4.8
      vertex -0.156793 -1.49178 -4.8
      vertex 4.8 -19.31 -4.8
    endloop
  endfacet
  facet normal -0 0 -1
    outer loop
      vertex -0.156793 -1.49178 -4.8
      vertex -4.8 -19.31 -4.8
      vertex -0.463525 -1.42658 -4.8
    endloop
  endfacet
  facet normal -0 0 -1
    outer loop
      vertex -0.463525 -1.42658 -4.8
      vertex -4.8 -19.31 -4.8
      vertex -0.75 -1.29904 -4.8
    endloop
  endfacet
  facet normal -0 0 -1
    outer loop
      vertex -0.75 -1.29904 -4.8
      vertex -4.8 -19.31 -4.8
      vertex -1.0037 -1.11472 -4.8
    endloop
  endfacet
  facet normal -0 0 -1
    outer loop
      vertex -1.0037 -1.11472 -4.8
      vertex -4.8 -19.31 -4.8
      vertex -1.21352 -0.881678 -4.8
    endloop
  endfacet
  facet normal -0 0 -1
    outer loop
      vertex -1.46722 -0.311867 -4.8
      vertex -4.8 -19.31 -4.8
      vertex -1.5 0 -4.8
    endloop
  endfacet
  facet normal -0 0 -1
    outer loop
      vertex -1.37032 -0.610105 -4.8
      vertex -4.8 -19.31 -4.8
      vertex -1.46722 -0.311867 -4.8
    endloop
  endfacet
  facet normal -0 0 -1
    outer loop
      vertex -1.21352 -0.881678 -4.8
      vertex -4.8 -19.31 -4.8
      vertex -1.37032 -0.610105 -4.8
    endloop
  endfacet
  facet normal 0 0 -1
    outer loop
      vertex 1.46722 0.311867 -4.8
      vertex 4.8 15 -4.8
      vertex 1.5 0 -4.8
    endloop
  endfacet
  facet normal 0 0 -1
    outer loop
      vertex 1.37032 0.610105 -4.8
      vertex 4.8 15 -4.8
      vertex 1.46722 0.311867 -4.8
    endloop
  endfacet
  facet normal 0 0 -1
    outer loop
      vertex 1.21352 0.881678 -4.8
      vertex 4.8 15 -4.8
      vertex 1.37032 0.610105 -4.8
    endloop
  endfacet
  facet normal 0 0 -1
    outer loop
      vertex 1.0037 1.11472 -4.8
      vertex 4.8 15 -4.8
      vertex 1.21352 0.881678 -4.8
    endloop
  endfacet
  facet normal 0 0 -1
    outer loop
      vertex 0.75 1.29904 -4.8
      vertex 4.8 15 -4.8
      vertex 1.0037 1.11472 -4.8
    endloop
  endfacet
  facet normal 0 0 -1
    outer loop
      vertex 0.463525 1.42658 -4.8
      vertex 4.8 15 -4.8
      vertex 0.75 1.29904 -4.8
    endloop
  endfacet
  facet normal 0 0 -1
    outer loop
      vertex 0.156793 1.49178 -4.8
      vertex 4.8 15 -4.8
      vertex 0.463525 1.42658 -4.8
    endloop
  endfacet
  facet normal 0 0 -1
    outer loop
      vertex -0.156793 1.49178 -4.8
      vertex 4.8 15 -4.8
      vertex 0.156793 1.49178 -4.8
    endloop
  endfacet
  facet normal 0 0 -1
    outer loop
      vertex -4.8 15 -4.8
      vertex -0.156793 1.49178 -4.8
      vertex -0.463525 1.42658 -4.8
    endloop
  endfacet
  facet normal 0 0 -1
    outer loop
      vertex -4.8 15 -4.8
      vertex -0.463525 1.42658 -4.8
      vertex -0.749999 1.29904 -4.8
    endloop
  endfacet
  facet normal 0 0 -1
    outer loop
      vertex -4.8 15 -4.8
      vertex -0.749999 1.29904 -4.8
      vertex -1.0037 1.11472 -4.8
    endloop
  endfacet
  facet normal 0 0 -1
    outer loop
      vertex -4.8 15 -4.8
      vertex -1.0037 1.11472 -4.8
      vertex -1.21352 0.881678 -4.8
    endloop
  endfacet
  facet normal 0 0 -1
    outer loop
      vertex -4.8 15 -4.8
      vertex -1.21352 0.881678 -4.8
      vertex -1.37032 0.610105 -4.8
    endloop
  endfacet
  facet normal 0 0 -1
    outer loop
      vertex -4.8 15 -4.8
      vertex -1.5 0 -4.8
      vertex -4.8 -19.31 -4.8
    endloop
  endfacet
  facet normal 0 0 -1
    outer loop
      vertex -0.156793 1.49178 -4.8
      vertex -4.8 15 -4.8
      vertex 4.8 15 -4.8
    endloop
  endfacet
  facet normal 0 0 -1
    outer loop
      vertex -1.46722 0.311867 -4.8
      vertex -4.8 15 -4.8
      vertex -1.37032 0.610105 -4.8
    endloop
  endfacet
  facet normal 0 0 -1
    outer loop
      vertex -1.5 0 -4.8
      vertex -4.8 15 -4.8
      vertex -1.46722 0.311867 -4.8
    endloop
  endfacet
  facet normal 0 -1 0
    outer loop
      vertex -4.8 -23.2843 -4.8
      vertex 4.8 -23.2843 4.8
      vertex -4.8 -23.2843 4.8
    endloop
  endfacet
  facet normal 0 -1 -0
    outer loop
      vertex 4.8 -23.2843 4.8
      vertex -4.8 -23.2843 -4.8
      vertex 4.8 -23.2843 -4.8
    endloop
  endfacet
  facet normal 0 1 -0
    outer loop
      vertex 4.8 15 -4.8
      vertex -4.8 15 4.8
      vertex 4.8 15 4.8
    endloop
  endfacet
  facet normal 0 1 0
    outer loop
      vertex -4.8 15 4.8
      vertex 4.8 15 -4.8
      vertex -4.8 15 -4.8
    endloop
  endfacet
  facet normal -0.866026 -0.5 0
    outer loop
      vertex 1.37032 0.610105 -4.8
      vertex 1.21352 0.881678 4.8
      vertex 1.21352 0.881678 -4.8
    endloop
  endfacet
  facet normal -0.866026 -0.5 0
    outer loop
      vertex 1.21352 0.881678 4.8
      vertex 1.37032 0.610105 -4.8
      vertex 1.37032 0.610105 4.8
    endloop
  endfacet
  facet normal 0.994522 -0.104529 0
    outer loop
      vertex -1.5 0 4.8
      vertex -1.46722 0.311867 -4.8
      vertex -1.46722 0.311867 4.8
    endloop
  endfacet
  facet normal 0.994522 -0.104529 0
    outer loop
      vertex -1.46722 0.311867 -4.8
      vertex -1.5 0 4.8
      vertex -1.5 0 -4.8
    endloop
  endfacet
  facet normal 0 -1 0
    outer loop
      vertex -0.156793 1.49178 -4.8
      vertex 0.156793 1.49178 4.8
      vertex -0.156793 1.49178 4.8
    endloop
  endfacet
  facet normal 0 -1 -0
    outer loop
      vertex 0.156793 1.49178 4.8
      vertex -0.156793 1.49178 -4.8
      vertex 0.156793 1.49178 -4.8
    endloop
  endfacet
  facet normal -0.743145 -0.669131 0
    outer loop
      vertex 1.21352 0.881678 -4.8
      vertex 1.0037 1.11472 4.8
      vertex 1.0037 1.11472 -4.8
    endloop
  endfacet
  facet normal -0.743145 -0.669131 0
    outer loop
      vertex 1.0037 1.11472 4.8
      vertex 1.21352 0.881678 -4.8
      vertex 1.21352 0.881678 4.8
    endloop
  endfacet
  facet normal -0.207912 -0.978148 0
    outer loop
      vertex 0.156793 1.49178 -4.8
      vertex 0.463525 1.42658 4.8
      vertex 0.156793 1.49178 4.8
    endloop
  endfacet
  facet normal -0.207912 -0.978148 -0
    outer loop
      vertex 0.463525 1.42658 4.8
      vertex 0.156793 1.49178 -4.8
      vertex 0.463525 1.42658 -4.8
    endloop
  endfacet
  facet normal 0.406736 -0.913546 0
    outer loop
      vertex -0.749999 1.29904 -4.8
      vertex -0.463525 1.42658 4.8
      vertex -0.749999 1.29904 4.8
    endloop
  endfacet
  facet normal 0.406736 -0.913546 0
    outer loop
      vertex -0.463525 1.42658 4.8
      vertex -0.749999 1.29904 -4.8
      vertex -0.463525 1.42658 -4.8
    endloop
  endfacet
  facet normal 0.951056 -0.309018 0
    outer loop
      vertex -1.46722 0.311867 4.8
      vertex -1.37032 0.610105 -4.8
      vertex -1.37032 0.610105 4.8
    endloop
  endfacet
  facet normal 0.951056 -0.309018 0
    outer loop
      vertex -1.37032 0.610105 -4.8
      vertex -1.46722 0.311867 4.8
      vertex -1.46722 0.311867 -4.8
    endloop
  endfacet
  facet normal -0.994522 0.104529 0
    outer loop
      vertex 1.46722 -0.311867 -4.8
      vertex 1.5 0 4.8
      vertex 1.5 0 -4.8
    endloop
  endfacet
  facet normal -0.994522 0.104529 0
    outer loop
      vertex 1.5 0 4.8
      vertex 1.46722 -0.311867 -4.8
      vertex 1.46722 -0.311867 4.8
    endloop
  endfacet
  facet normal -0.207912 0.978148 0
    outer loop
      vertex 0.463525 -1.42658 -4.8
      vertex 0.156793 -1.49178 4.8
      vertex 0.463525 -1.42658 4.8
    endloop
  endfacet
  facet normal -0.207912 0.978148 0
    outer loop
      vertex 0.156793 -1.49178 4.8
      vertex 0.463525 -1.42658 -4.8
      vertex 0.156793 -1.49178 -4.8
    endloop
  endfacet
  facet normal -0.951056 -0.309018 0
    outer loop
      vertex 1.46722 0.311867 -4.8
      vertex 1.37032 0.610105 4.8
      vertex 1.37032 0.610105 -4.8
    endloop
  endfacet
  facet normal -0.951056 -0.309018 0
    outer loop
      vertex 1.37032 0.610105 4.8
      vertex 1.46722 0.311867 -4.8
      vertex 1.46722 0.311867 4.8
    endloop
  endfacet
  facet normal -0.587787 -0.809016 0
    outer loop
      vertex 0.75 1.29904 -4.8
      vertex 1.0037 1.11472 4.8
      vertex 0.75 1.29904 4.8
    endloop
  endfacet
  facet normal -0.587787 -0.809016 -0
    outer loop
      vertex 1.0037 1.11472 4.8
      vertex 0.75 1.29904 -4.8
      vertex 1.0037 1.11472 -4.8
    endloop
  endfacet
  facet normal -0.406735 -0.913546 0
    outer loop
      vertex 0.463525 1.42658 -4.8
      vertex 0.75 1.29904 4.8
      vertex 0.463525 1.42658 4.8
    endloop
  endfacet
  facet normal -0.406735 -0.913546 -0
    outer loop
      vertex 0.75 1.29904 4.8
      vertex 0.463525 1.42658 -4.8
      vertex 0.75 1.29904 -4.8
    endloop
  endfacet
  facet normal 0.866026 -0.5 0
    outer loop
      vertex -1.37032 0.610105 4.8
      vertex -1.21352 0.881678 -4.8
      vertex -1.21352 0.881678 4.8
    endloop
  endfacet
  facet normal 0.866026 -0.5 0
    outer loop
      vertex -1.21352 0.881678 -4.8
      vertex -1.37032 0.610105 4.8
      vertex -1.37032 0.610105 -4.8
    endloop
  endfacet
  facet normal 0.587786 -0.809017 0
    outer loop
      vertex -1.0037 1.11472 -4.8
      vertex -0.749999 1.29904 4.8
      vertex -1.0037 1.11472 4.8
    endloop
  endfacet
  facet normal 0.587786 -0.809017 0
    outer loop
      vertex -0.749999 1.29904 4.8
      vertex -1.0037 1.11472 -4.8
      vertex -0.749999 1.29904 -4.8
    endloop
  endfacet
  facet normal 0.207912 -0.978148 0
    outer loop
      vertex -0.463525 1.42658 -4.8
      vertex -0.156793 1.49178 4.8
      vertex -0.463525 1.42658 4.8
    endloop
  endfacet
  facet normal 0.207912 -0.978148 0
    outer loop
      vertex -0.156793 1.49178 4.8
      vertex -0.463525 1.42658 -4.8
      vertex -0.156793 1.49178 -4.8
    endloop
  endfacet
  facet normal 0.743145 -0.669131 0
    outer loop
      vertex -1.21352 0.881678 4.8
      vertex -1.0037 1.11472 -4.8
      vertex -1.0037 1.11472 4.8
    endloop
  endfacet
  facet normal 0.743145 -0.669131 0
    outer loop
      vertex -1.0037 1.11472 -4.8
      vertex -1.21352 0.881678 4.8
      vertex -1.21352 0.881678 -4.8
    endloop
  endfacet
  facet normal -0.994522 -0.104529 0
    outer loop
      vertex 1.5 0 -4.8
      vertex 1.46722 0.311867 4.8
      vertex 1.46722 0.311867 -4.8
    endloop
  endfacet
  facet normal -0.994522 -0.104529 0
    outer loop
      vertex 1.46722 0.311867 4.8
      vertex 1.5 0 -4.8
      vertex 1.5 0 4.8
    endloop
  endfacet
  facet normal -0.951056 0.309018 0
    outer loop
      vertex 1.37032 -0.610105 -4.8
      vertex 1.46722 -0.311867 4.8
      vertex 1.46722 -0.311867 -4.8
    endloop
  endfacet
  facet normal -0.951056 0.309018 0
    outer loop
      vertex 1.46722 -0.311867 4.8
      vertex 1.37032 -0.610105 -4.8
      vertex 1.37032 -0.610105 4.8
    endloop
  endfacet
  facet normal 0.994522 0.104529 0
    outer loop
      vertex -1.46722 -0.311867 4.8
      vertex -1.5 0 -4.8
      vertex -1.5 0 4.8
    endloop
  endfacet
  facet normal 0.994522 0.104529 0
    outer loop
      vertex -1.5 0 -4.8
      vertex -1.46722 -0.311867 4.8
      vertex -1.46722 -0.311867 -4.8
    endloop
  endfacet
  facet normal -0.587787 0.809016 0
    outer loop
      vertex 1.0037 -1.11472 -4.8
      vertex 0.75 -1.29904 4.8
      vertex 1.0037 -1.11472 4.8
    endloop
  endfacet
  facet normal -0.587787 0.809016 0
    outer loop
      vertex 0.75 -1.29904 4.8
      vertex 1.0037 -1.11472 -4.8
      vertex 0.75 -1.29904 -4.8
    endloop
  endfacet
  facet normal -0.866026 0.5 0
    outer loop
      vertex 1.21352 -0.881678 -4.8
      vertex 1.37032 -0.610105 4.8
      vertex 1.37032 -0.610105 -4.8
    endloop
  endfacet
  facet normal -0.866026 0.5 0
    outer loop
      vertex 1.37032 -0.610105 4.8
      vertex 1.21352 -0.881678 -4.8
      vertex 1.21352 -0.881678 4.8
    endloop
  endfacet
  facet normal -0.406735 0.913546 0
    outer loop
      vertex 0.75 -1.29904 -4.8
      vertex 0.463525 -1.42658 4.8
      vertex 0.75 -1.29904 4.8
    endloop
  endfacet
  facet normal -0.406735 0.913546 0
    outer loop
      vertex 0.463525 -1.42658 4.8
      vertex 0.75 -1.29904 -4.8
      vertex 0.463525 -1.42658 -4.8
    endloop
  endfacet
  facet normal 0.866026 0.5 0
    outer loop
      vertex -1.21352 -0.881678 4.8
      vertex -1.37032 -0.610105 -4.8
      vertex -1.37032 -0.610105 4.8
    endloop
  endfacet
  facet normal 0.866026 0.5 0
    outer loop
      vertex -1.37032 -0.610105 -4.8
      vertex -1.21352 -0.881678 4.8
      vertex -1.21352 -0.881678 -4.8
    endloop
  endfacet
  facet normal 0.951056 0.309018 0
    outer loop
      vertex -1.37032 -0.610105 4.8
      vertex -1.46722 -0.311867 -4.8
      vertex -1.46722 -0.311867 4.8
    endloop
  endfacet
  facet normal 0.951056 0.309018 0
    outer loop
      vertex -1.46722 -0.311867 -4.8
      vertex -1.37032 -0.610105 4.8
      vertex -1.37032 -0.610105 -4.8
    endloop
  endfacet
  facet normal 0.743145 0.669131 0
    outer loop
      vertex -1.0037 -1.11472 4.8
      vertex -1.21352 -0.881678 -4.8
      vertex -1.21352 -0.881678 4.8
    endloop
  endfacet
  facet normal 0.743145 0.669131 0
    outer loop
      vertex -1.21352 -0.881678 -4.8
      vertex -1.0037 -1.11472 4.8
      vertex -1.0037 -1.11472 -4.8
    endloop
  endfacet
  facet normal 0.207912 0.978148 -0
    outer loop
      vertex -0.156793 -1.49178 -4.8
      vertex -0.463525 -1.42658 4.8
      vertex -0.156793 -1.49178 4.8
    endloop
  endfacet
  facet normal 0.207912 0.978148 0
    outer loop
      vertex -0.463525 -1.42658 4.8
      vertex -0.156793 -1.49178 -4.8
      vertex -0.463525 -1.42658 -4.8
    endloop
  endfacet
  facet normal 0 1 -0
    outer loop
      vertex 0.156793 -1.49178 -4.8
      vertex -0.156793 -1.49178 4.8
      vertex 0.156793 -1.49178 4.8
    endloop
  endfacet
  facet normal 0 1 0
    outer loop
      vertex -0.156793 -1.49178 4.8
      vertex 0.156793 -1.49178 -4.8
      vertex -0.156793 -1.49178 -4.8
    endloop
  endfacet
  facet normal -0.743145 0.669131 0
    outer loop
      vertex 1.0037 -1.11472 -4.8
      vertex 1.21352 -0.881678 4.8
      vertex 1.21352 -0.881678 -4.8
    endloop
  endfacet
  facet normal -0.743145 0.669131 0
    outer loop
      vertex 1.21352 -0.881678 4.8
      vertex 1.0037 -1.11472 -4.8
      vertex 1.0037 -1.11472 4.8
    endloop
  endfacet
  facet normal 0.587787 0.809016 -0
    outer loop
      vertex -0.75 -1.29904 -4.8
      vertex -1.0037 -1.11472 4.8
      vertex -0.75 -1.29904 4.8
    endloop
  endfacet
  facet normal 0.587787 0.809016 0
    outer loop
      vertex -1.0037 -1.11472 4.8
      vertex -0.75 -1.29904 -4.8
      vertex -1.0037 -1.11472 -4.8
    endloop
  endfacet
  facet normal 0.406735 0.913546 -0
    outer loop
      vertex -0.463525 -1.42658 -4.8
      vertex -0.75 -1.29904 4.8
      vertex -0.463525 -1.42658 4.8
    endloop
  endfacet
  facet normal 0.406735 0.913546 0
    outer loop
      vertex -0.75 -1.29904 4.8
      vertex -0.463525 -1.42658 -4.8
      vertex -0.75 -1.29904 -4.8
    endloop
  endfacet
  facet normal 0 -0.104529 0.994522
    outer loop
      vertex -4.02185 -20.0764 -0.978148
      vertex 4.01824 -20.1107 -0.981756
      vertex 4.02185 -20.0764 -0.978148
    endloop
  endfacet
  facet normal -2.29309e-10 -0.104529 0.994522
    outer loop
      vertex 4.01824 -20.1107 -0.981756
      vertex -4.02185 -20.0764 -0.978148
      vertex -4.00364 -20.2497 -0.996365
    endloop
  endfacet
  facet normal -8.68161e-08 -0.104524 0.994522
    outer loop
      vertex -4.00364 -20.2497 -0.996365
      vertex 4 -20.2843 -0.999999
      vertex 4.01272 -20.1632 -0.987276
    endloop
  endfacet
  facet normal -1.0059e-07 -0.104523 0.994522
    outer loop
      vertex -4.00364 -20.2497 -0.996365
      vertex 4.01272 -20.1632 -0.987276
      vertex 4.01824 -20.1107 -0.981756
    endloop
  endfacet
  facet normal -7.40977e-08 -0.104522 0.994523
    outer loop
      vertex 4 -20.2843 -0.999999
      vertex -4.00364 -20.2497 -0.996365
      vertex -4 -20.2843 -1
    endloop
  endfacet
  facet normal 0 -1 0
    outer loop
      vertex -4.8 -19.2897 -0.104528
      vertex 4.8 -19.2897 0.104528
      vertex -4.8 -19.2897 0.104528
    endloop
  endfacet
  facet normal 0 -1 -0
    outer loop
      vertex 4.8 -19.2897 0.104528
      vertex -4.8 -19.2897 -0.104528
      vertex 4.8 -19.2897 -0.104528
    endloop
  endfacet
  facet normal 7.40977e-08 0.104522 -0.994523
    outer loop
      vertex 4.00363 -20.3189 0.996365
      vertex -4 -20.2843 0.999999
      vertex 4 -20.2843 1
    endloop
  endfacet
  facet normal 8.51491e-08 0.104524 -0.994522
    outer loop
      vertex -4 -20.2843 0.999999
      vertex 4.00363 -20.3189 0.996365
      vertex -4.01824 -20.4578 0.981756
    endloop
  endfacet
  facet normal 1.93394e-07 -0.91355 0.406728
    outer loop
      vertex -4.5235 -19.4078 -0.476501
      vertex 4.60183 -19.3729 -0.398171
      vertex 4.66981 -19.3426 -0.330187
    endloop
  endfacet
  facet normal 4.20227e-08 -0.913543 0.406742
    outer loop
      vertex -4.5235 -19.4078 -0.476501
      vertex 4.5 -19.4182 -0.499999
      vertex 4.60183 -19.3729 -0.398171
    endloop
  endfacet
  facet normal -3.23231e-08 -0.913554 0.406718
    outer loop
      vertex 4.5 -19.4182 -0.499999
      vertex -4.5235 -19.4078 -0.476501
      vertex -4.5 -19.4182 -0.5
    endloop
  endfacet
  facet normal 6.11887e-08 -0.809014 0.587789
    outer loop
      vertex -4.33087 -19.5411 -0.66913
      vertex 4.35407 -19.5243 -0.645932
      vertex -4.47856 -19.4338 -0.521444
    endloop
  endfacet
  facet normal 0 -0.809004 0.587804
    outer loop
      vertex 4.35407 -19.5243 -0.645932
      vertex -4.33087 -19.5411 -0.66913
      vertex 4.33087 -19.5411 -0.66913
    endloop
  endfacet
  facet normal 0 -0.66913 -0.743145
    outer loop
      vertex -4.19098 -19.6965 0.809016
      vertex 4.33087 -19.5411 0.66913
      vertex 4.19098 -19.6965 0.809016
    endloop
  endfacet
  facet normal -0 -0.66913 -0.743145
    outer loop
      vertex 4.33087 -19.5411 0.66913
      vertex -4.19098 -19.6965 0.809016
      vertex -4.33087 -19.5411 0.66913
    endloop
  endfacet
  facet normal 0 -0.913538 0.406754
    outer loop
      vertex -4.69098 -19.3332 -0.309016
      vertex 4.66981 -19.3426 -0.330187
      vertex 4.69098 -19.3332 -0.309016
    endloop
  endfacet
  facet normal -3.77731e-08 -0.913544 0.40674
    outer loop
      vertex 4.66981 -19.3426 -0.330187
      vertex -4.69098 -19.3332 -0.309016
      vertex -4.5235 -19.4078 -0.476501
    endloop
  endfacet
  facet normal -1.00644e-05 -0.978149 0.207904
    outer loop
      vertex -4.69098 -19.3332 -0.309016
      vertex -4.8 -19.2897 -0.104528
      vertex -4.8 -19.31 -0.2
    endloop
  endfacet
  facet normal 0 -0.978148 0.207909
    outer loop
      vertex -4.8 -19.2897 -0.104528
      vertex -4.69098 -19.3332 -0.309016
      vertex 4.8 -19.2897 -0.104528
    endloop
  endfacet
  facet normal 0 -0.978148 0.207909
    outer loop
      vertex 4.69098 -19.3332 -0.309016
      vertex 4.8 -19.2897 -0.104528
      vertex -4.69098 -19.3332 -0.309016
    endloop
  endfacet
  facet normal 1.00644e-05 -0.978149 0.207904
    outer loop
      vertex 4.8 -19.2897 -0.104528
      vertex 4.69098 -19.3332 -0.309016
      vertex 4.8 -19.31 -0.2
    endloop
  endfacet
  facet normal -2.65909e-05 0.978145 -0.207923
    outer loop
      vertex 4.8 -21.2788 0.104528
      vertex 4.69098 -21.2353 0.309016
      vertex 4.8 -21.2585 0.2
    endloop
  endfacet
  facet normal 0 0.978148 -0.207909
    outer loop
      vertex 4.69098 -21.2353 0.309016
      vertex 4.8 -21.2788 0.104528
      vertex -4.69098 -21.2353 0.309016
    endloop
  endfacet
  facet normal 0 0.978148 -0.207909
    outer loop
      vertex -4.8 -21.2788 0.104528
      vertex -4.69098 -21.2353 0.309016
      vertex 4.8 -21.2788 0.104528
    endloop
  endfacet
  facet normal 2.65909e-05 0.978145 -0.207923
    outer loop
      vertex -4.69098 -21.2353 0.309016
      vertex -4.8 -21.2788 0.104528
      vertex -4.8 -21.2585 0.2
    endloop
  endfacet
  facet normal -2.32186e-08 0.10453 -0.994522
    outer loop
      vertex 4.00912 -20.3711 0.990878
      vertex -4.01824 -20.4578 0.981756
      vertex 4.00363 -20.3189 0.996365
    endloop
  endfacet
  facet normal -2.26706e-09 0.104528 -0.994522
    outer loop
      vertex 4.02185 -20.4922 0.978148
      vertex -4.01824 -20.4578 0.981756
      vertex 4.00912 -20.3711 0.990878
    endloop
  endfacet
  facet normal 0 0.104529 -0.994522
    outer loop
      vertex -4.01824 -20.4578 0.981756
      vertex 4.02185 -20.4922 0.978148
      vertex -4.02185 -20.4922 0.978148
    endloop
  endfacet
  facet normal -5.19411e-08 0.913546 -0.406735
    outer loop
      vertex 4.58895 -21.1899 0.41105
      vertex -4.66981 -21.2259 0.330187
      vertex 4.5235 -21.1608 0.476501
    endloop
  endfacet
  facet normal 2.94463e-08 0.913543 -0.406743
    outer loop
      vertex 4.69098 -21.2353 0.309016
      vertex -4.66981 -21.2259 0.330187
      vertex 4.58895 -21.1899 0.41105
    endloop
  endfacet
  facet normal 0 0.913538 -0.406754
    outer loop
      vertex -4.66981 -21.2259 0.330187
      vertex 4.69098 -21.2353 0.309016
      vertex -4.69098 -21.2353 0.309016
    endloop
  endfacet
  facet normal 0 0.913538 0.406754
    outer loop
      vertex 4.66981 -21.2259 -0.330187
      vertex -4.69098 -21.2353 -0.309016
      vertex 4.69098 -21.2353 -0.309016
    endloop
  endfacet
  facet normal -3.77731e-08 0.913544 0.40674
    outer loop
      vertex -4.69098 -21.2353 -0.309016
      vertex 4.66981 -21.2259 -0.330187
      vertex -4.5235 -21.1608 -0.476501
    endloop
  endfacet
  facet normal -0 0.809035 0.58776
    outer loop
      vertex -4.33087 -21.0274 -0.66913
      vertex 4.35407 -21.0443 -0.645932
      vertex 4.33087 -21.0274 -0.66913
    endloop
  endfacet
  facet normal -8.81771e-08 0.809019 0.587782
    outer loop
      vertex 4.35407 -21.0443 -0.645932
      vertex -4.33087 -21.0274 -0.66913
      vertex -4.47856 -21.1347 -0.521444
    endloop
  endfacet
  facet normal -0 0.309021 0.951055
    outer loop
      vertex -4.02185 -20.4922 -0.978148
      vertex 4.08645 -20.691 -0.913545
      vertex 4.02185 -20.4922 -0.978148
    endloop
  endfacet
  facet normal 0 0.309021 0.951055
    outer loop
      vertex 4.08645 -20.691 -0.913545
      vertex -4.02185 -20.4922 -0.978148
      vertex -4.08645 -20.691 -0.913545
    endloop
  endfacet
  facet normal -2.32186e-08 -0.10453 -0.994522
    outer loop
      vertex -4.01824 -20.1107 0.981756
      vertex 4.00912 -20.1975 0.990878
      vertex 4.00363 -20.2497 0.996365
    endloop
  endfacet
  facet normal -2.26706e-09 -0.104528 -0.994522
    outer loop
      vertex -4.01824 -20.1107 0.981756
      vertex 4.02185 -20.0764 0.978148
      vertex 4.00912 -20.1975 0.990878
    endloop
  endfacet
  facet normal -0 -0.104529 -0.994522
    outer loop
      vertex 4.02185 -20.0764 0.978148
      vertex -4.01824 -20.1107 0.981756
      vertex -4.02185 -20.0764 0.978148
    endloop
  endfacet
  facet normal 8.16974e-08 -0.809019 -0.587782
    outer loop
      vertex -4.5 -19.4182 0.499999
      vertex 4.47856 -19.4338 0.521444
      vertex -4.35407 -19.5243 0.645932
    endloop
  endfacet
  facet normal 4.6712e-08 -0.809026 -0.587773
    outer loop
      vertex 4.47856 -19.4338 0.521444
      vertex -4.5 -19.4182 0.499999
      vertex 4.5 -19.4182 0.5
    endloop
  endfacet
  facet normal 0 -0.809004 -0.587804
    outer loop
      vertex -4.35407 -19.5243 0.645932
      vertex 4.33087 -19.5411 0.66913
      vertex -4.33087 -19.5411 0.66913
    endloop
  endfacet
  facet normal -8.02817e-08 -0.809018 -0.587784
    outer loop
      vertex -4.35407 -19.5243 0.645932
      vertex 4.42356 -19.4738 0.576441
      vertex 4.33087 -19.5411 0.66913
    endloop
  endfacet
  facet normal -2.33864e-07 -0.809009 -0.587797
    outer loop
      vertex 4.42356 -19.4738 0.576441
      vertex -4.35407 -19.5243 0.645932
      vertex 4.47856 -19.4338 0.521444
    endloop
  endfacet
  facet normal -5.19411e-08 -0.913546 -0.406735
    outer loop
      vertex -4.66981 -19.3426 0.330187
      vertex 4.58895 -19.3786 0.41105
      vertex 4.5235 -19.4078 0.476501
    endloop
  endfacet
  facet normal 1.44421e-07 -0.913538 -0.406754
    outer loop
      vertex -4.69098 -19.3332 0.309016
      vertex 4.58895 -19.3786 0.41105
      vertex -4.66981 -19.3426 0.330187
    endloop
  endfacet
  facet normal 0 -0.913543 -0.406743
    outer loop
      vertex 4.58895 -19.3786 0.41105
      vertex -4.69098 -19.3332 0.309016
      vertex 4.69098 -19.3332 0.309016
    endloop
  endfacet
  facet normal -1.00644e-05 -0.978149 -0.207904
    outer loop
      vertex -4.8 -19.2897 0.104528
      vertex -4.69098 -19.3332 0.309016
      vertex -4.8 -19.31 0.2
    endloop
  endfacet
  facet normal 0 -0.978148 -0.207909
    outer loop
      vertex -4.69098 -19.3332 0.309016
      vertex -4.8 -19.2897 0.104528
      vertex 4.69098 -19.3332 0.309016
    endloop
  endfacet
  facet normal -0 -0.978148 -0.207909
    outer loop
      vertex 4.8 -19.2897 0.104528
      vertex 4.69098 -19.3332 0.309016
      vertex -4.8 -19.2897 0.104528
    endloop
  endfacet
  facet normal 1.00644e-05 -0.978149 -0.207904
    outer loop
      vertex 4.69098 -19.3332 0.309016
      vertex 4.8 -19.2897 0.104528
      vertex 4.8 -19.31 0.2
    endloop
  endfacet
  facet normal 0 -0.66913 0.743145
    outer loop
      vertex 4.33087 -19.5411 -0.66913
      vertex -4.19098 -19.6965 -0.809016
      vertex 4.19098 -19.6965 -0.809016
    endloop
  endfacet
  facet normal 0 -0.66913 0.743145
    outer loop
      vertex -4.19098 -19.6965 -0.809016
      vertex 4.33087 -19.5411 -0.66913
      vertex -4.33087 -19.5411 -0.66913
    endloop
  endfacet
  facet normal 0 -0.309019 0.951056
    outer loop
      vertex 4.08645 -19.8775 -0.913545
      vertex -4.02185 -20.0764 -0.978148
      vertex 4.02185 -20.0764 -0.978148
    endloop
  endfacet
  facet normal 0 -0.309019 0.951056
    outer loop
      vertex -4.02185 -20.0764 -0.978148
      vertex 4.08645 -19.8775 -0.913545
      vertex -4.08645 -19.8775 -0.913545
    endloop
  endfacet
  facet normal -4.6712e-08 -0.809026 0.587773
    outer loop
      vertex -4.47856 -19.4338 -0.521444
      vertex 4.5 -19.4182 -0.499999
      vertex -4.5 -19.4182 -0.5
    endloop
  endfacet
  facet normal -1.01448e-07 -0.809015 0.587788
    outer loop
      vertex -4.47856 -19.4338 -0.521444
      vertex 4.40708 -19.4858 -0.592922
      vertex 4.5 -19.4182 -0.499999
    endloop
  endfacet
  facet normal -2.82691e-07 -0.809026 0.587773
    outer loop
      vertex 4.40708 -19.4858 -0.592922
      vertex -4.47856 -19.4338 -0.521444
      vertex 4.35407 -19.5243 -0.645932
    endloop
  endfacet
  facet normal 0 0.309021 -0.951055
    outer loop
      vertex 4.08645 -20.691 0.913545
      vertex -4.02185 -20.4922 0.978148
      vertex 4.02185 -20.4922 0.978148
    endloop
  endfacet
  facet normal 0 0.309021 -0.951055
    outer loop
      vertex -4.02185 -20.4922 0.978148
      vertex 4.08645 -20.691 0.913545
      vertex -4.08645 -20.691 0.913545
    endloop
  endfacet
  facet normal 0 0.500002 -0.866024
    outer loop
      vertex 4.19098 -20.8721 0.809016
      vertex -4.08645 -20.691 0.913545
      vertex 4.08645 -20.691 0.913545
    endloop
  endfacet
  facet normal 0 0.500002 -0.866024
    outer loop
      vertex -4.08645 -20.691 0.913545
      vertex 4.19098 -20.8721 0.809016
      vertex -4.19098 -20.8721 0.809016
    endloop
  endfacet
  facet normal -2.29309e-10 0.104529 0.994522
    outer loop
      vertex -4.02185 -20.4922 -0.978148
      vertex 4.01824 -20.4578 -0.981756
      vertex -4.00364 -20.3189 -0.996365
    endloop
  endfacet
  facet normal 0 0.104529 0.994522
    outer loop
      vertex 4.01824 -20.4578 -0.981756
      vertex -4.02185 -20.4922 -0.978148
      vertex 4.02185 -20.4922 -0.978148
    endloop
  endfacet
  facet normal -7.40977e-08 0.104522 0.994523
    outer loop
      vertex -4.00364 -20.3189 -0.996365
      vertex 4 -20.2843 -0.999999
      vertex -4 -20.2843 -1
    endloop
  endfacet
  facet normal -8.68161e-08 0.104524 0.994522
    outer loop
      vertex 4 -20.2843 -0.999999
      vertex -4.00364 -20.3189 -0.996365
      vertex 4.01272 -20.4053 -0.987276
    endloop
  endfacet
  facet normal -1.0059e-07 0.104523 0.994522
    outer loop
      vertex 4.01272 -20.4053 -0.987276
      vertex -4.00364 -20.3189 -0.996365
      vertex 4.01824 -20.4578 -0.981756
    endloop
  endfacet
  facet normal 0 -0.500002 -0.866024
    outer loop
      vertex -4.08645 -19.8775 0.913545
      vertex 4.19098 -19.6965 0.809016
      vertex 4.08645 -19.8775 0.913545
    endloop
  endfacet
  facet normal -0 -0.500002 -0.866024
    outer loop
      vertex 4.19098 -19.6965 0.809016
      vertex -4.08645 -19.8775 0.913545
      vertex -4.19098 -19.6965 0.809016
    endloop
  endfacet
  facet normal 7.40977e-08 -0.104522 -0.994523
    outer loop
      vertex -4 -20.2843 0.999999
      vertex 4.00363 -20.2497 0.996365
      vertex 4 -20.2843 1
    endloop
  endfacet
  facet normal 8.51491e-08 -0.104524 -0.994522
    outer loop
      vertex 4.00363 -20.2497 0.996365
      vertex -4 -20.2843 0.999999
      vertex -4.01824 -20.1107 0.981756
    endloop
  endfacet
  facet normal 3.23231e-08 -0.913554 -0.406718
    outer loop
      vertex -4.5 -19.4182 0.499999
      vertex 4.5235 -19.4078 0.476501
      vertex 4.5 -19.4182 0.5
    endloop
  endfacet
  facet normal -2.38432e-08 -0.913546 -0.406736
    outer loop
      vertex 4.5235 -19.4078 0.476501
      vertex -4.5 -19.4182 0.499999
      vertex -4.66981 -19.3426 0.330187
    endloop
  endfacet
  facet normal 0 -0.500002 0.866024
    outer loop
      vertex 4.19098 -19.6965 -0.809016
      vertex -4.08645 -19.8775 -0.913545
      vertex 4.08645 -19.8775 -0.913545
    endloop
  endfacet
  facet normal 0 -0.500002 0.866024
    outer loop
      vertex -4.08645 -19.8775 -0.913545
      vertex 4.19098 -19.6965 -0.809016
      vertex -4.19098 -19.6965 -0.809016
    endloop
  endfacet
  facet normal 0 0.809035 -0.58776
    outer loop
      vertex 4.33087 -21.0274 0.66913
      vertex -4.35407 -21.0443 0.645932
      vertex -4.33087 -21.0274 0.66913
    endloop
  endfacet
  facet normal 9.69181e-08 0.809018 -0.587784
    outer loop
      vertex 4.42356 -21.0948 0.576441
      vertex -4.35407 -21.0443 0.645932
      vertex 4.33087 -21.0274 0.66913
    endloop
  endfacet
  facet normal 1.67234e-07 0.809022 -0.587778
    outer loop
      vertex -4.35407 -21.0443 0.645932
      vertex 4.42356 -21.0948 0.576441
      vertex 4.47856 -21.1347 0.521444
    endloop
  endfacet
  facet normal 3.2328e-08 0.913526 -0.40678
    outer loop
      vertex 4.5235 -21.1608 0.476501
      vertex -4.5 -21.1503 0.499999
      vertex 4.5 -21.1503 0.5
    endloop
  endfacet
  facet normal 1.42105e-07 0.913542 -0.406745
    outer loop
      vertex -4.5 -21.1503 0.499999
      vertex 4.5235 -21.1608 0.476501
      vertex -4.66981 -21.2259 0.330187
    endloop
  endfacet
  facet normal 0 0.669126 -0.743149
    outer loop
      vertex 4.33087 -21.0274 0.66913
      vertex -4.19098 -20.8721 0.809016
      vertex 4.19098 -20.8721 0.809016
    endloop
  endfacet
  facet normal 0 0.669126 -0.743149
    outer loop
      vertex -4.19098 -20.8721 0.809016
      vertex 4.33087 -21.0274 0.66913
      vertex -4.33087 -21.0274 0.66913
    endloop
  endfacet
  facet normal -2.21115e-07 0.91354 0.406749
    outer loop
      vertex 4.60183 -21.1956 -0.398171
      vertex -4.5235 -21.1608 -0.476501
      vertex 4.66981 -21.2259 -0.330187
    endloop
  endfacet
  facet normal -1.50577e-07 0.913543 0.406742
    outer loop
      vertex 4.5 -21.1503 -0.499999
      vertex -4.5235 -21.1608 -0.476501
      vertex 4.60183 -21.1956 -0.398171
    endloop
  endfacet
  facet normal -3.2328e-08 0.913526 0.40678
    outer loop
      vertex -4.5235 -21.1608 -0.476501
      vertex 4.5 -21.1503 -0.499999
      vertex -4.5 -21.1503 -0.5
    endloop
  endfacet
  facet normal -4.6712e-08 0.809026 0.587773
    outer loop
      vertex 4.5 -21.1503 -0.499999
      vertex -4.47856 -21.1347 -0.521444
      vertex -4.5 -21.1503 -0.5
    endloop
  endfacet
  facet normal -6.16923e-08 0.809023 0.587777
    outer loop
      vertex 4.40708 -21.0828 -0.592922
      vertex -4.47856 -21.1347 -0.521444
      vertex 4.5 -21.1503 -0.499999
    endloop
  endfacet
  facet normal 1.21875e-07 0.809012 0.587792
    outer loop
      vertex -4.47856 -21.1347 -0.521444
      vertex 4.40708 -21.0828 -0.592922
      vertex 4.35407 -21.0443 -0.645932
    endloop
  endfacet
  facet normal -2.65909e-05 0.978145 0.207923
    outer loop
      vertex 4.69098 -21.2353 -0.309016
      vertex 4.8 -21.2788 -0.104528
      vertex 4.8 -21.2585 -0.2
    endloop
  endfacet
  facet normal 0 0.978148 0.207909
    outer loop
      vertex 4.8 -21.2788 -0.104528
      vertex 4.69098 -21.2353 -0.309016
      vertex -4.8 -21.2788 -0.104528
    endloop
  endfacet
  facet normal -0 0.978148 0.207909
    outer loop
      vertex -4.69098 -21.2353 -0.309016
      vertex -4.8 -21.2788 -0.104528
      vertex 4.69098 -21.2353 -0.309016
    endloop
  endfacet
  facet normal 2.65909e-05 0.978145 0.207923
    outer loop
      vertex -4.8 -21.2788 -0.104528
      vertex -4.69098 -21.2353 -0.309016
      vertex -4.8 -21.2585 -0.2
    endloop
  endfacet
  facet normal -0 0.500002 0.866024
    outer loop
      vertex -4.08645 -20.691 -0.913545
      vertex 4.19098 -20.8721 -0.809016
      vertex 4.08645 -20.691 -0.913545
    endloop
  endfacet
  facet normal 0 0.500002 0.866024
    outer loop
      vertex 4.19098 -20.8721 -0.809016
      vertex -4.08645 -20.691 -0.913545
      vertex -4.19098 -20.8721 -0.809016
    endloop
  endfacet
  facet normal -0 0.669126 0.743149
    outer loop
      vertex -4.19098 -20.8721 -0.809016
      vertex 4.33087 -21.0274 -0.66913
      vertex 4.19098 -20.8721 -0.809016
    endloop
  endfacet
  facet normal 0 0.669126 0.743149
    outer loop
      vertex 4.33087 -21.0274 -0.66913
      vertex -4.19098 -20.8721 -0.809016
      vertex -4.33087 -21.0274 -0.66913
    endloop
  endfacet
  facet normal 0 -0.309019 -0.951056
    outer loop
      vertex -4.02185 -20.0764 0.978148
      vertex 4.08645 -19.8775 0.913545
      vertex 4.02185 -20.0764 0.978148
    endloop
  endfacet
  facet normal -0 -0.309019 -0.951056
    outer loop
      vertex 4.08645 -19.8775 0.913545
      vertex -4.02185 -20.0764 0.978148
      vertex -4.08645 -19.8775 0.913545
    endloop
  endfacet
  facet normal 4.6712e-08 0.809026 -0.587773
    outer loop
      vertex -4.5 -21.1503 0.499999
      vertex 4.47856 -21.1347 0.521444
      vertex 4.5 -21.1503 0.5
    endloop
  endfacet
  facet normal 8.16974e-08 0.809019 -0.587782
    outer loop
      vertex 4.47856 -21.1347 0.521444
      vertex -4.5 -21.1503 0.499999
      vertex -4.35407 -21.0443 0.645932
    endloop
  endfacet
  facet normal 0 1 -0
    outer loop
      vertex 4.8 -21.2788 -0.104528
      vertex -4.8 -21.2788 0.104528
      vertex 4.8 -21.2788 0.104528
    endloop
  endfacet
  facet normal 0 1 0
    outer loop
      vertex -4.8 -21.2788 0.104528
      vertex 4.8 -21.2788 -0.104528
      vertex -4.8 -21.2788 -0.104528
    endloop
  endfacet
endsolid OpenSCAD_Model
