  0
SECTION
  2
HEADER
  9
$ACADVER
  1
AC1014
  9
$HANDSEED
  5
FFFF
  9
$MEASUREMENT
 70
     1
  0
ENDSEC
  0
SECTION
  2
TABLES
  0
TABLE
  2
VPORT
  5
8
330
0
100
AcDbSymbolTable
 70
     4
  0
VPORT
  5
2E
330
8
100
AcDbSymbolTableRecord
100
AcDbViewportTableRecord
  2
*ACTIVE
 70
     0
 10
0.0
 20
0.0
 11
1.0
 21
1.0
 12
210.0
 22
148.5
 13
0.0
 23
0.0
 14
10.0
 24
10.0
 15
10.0
 25
10.0
 16
0.0
 26
0.0
 36
1.0
 17
0.0
 27
0.0
 37
0.0
 40
341.0
 41
1.24
 42
50.0
 43
0.0
 44
0.0
 50
0.0
 51
0.0
 71
     0
 72
   100
 73
     1
 74
     3
 75
     0
 76
     0
 77
     0
 78
     0
  0
ENDTAB
  0
TABLE
  2
LTYPE
  5
5
330
0
100
AcDbSymbolTable
 70
     1
  0
LTYPE
  5
14
330
5
100
AcDbSymbolTableRecord
100
AcDbLinetypeTableRecord
  2
BYBLOCK
 70
     0
  3

 72
    65
 73
     0
 40
0.0
  0
LTYPE
  5
15
330
5
100
AcDbSymbolTableRecord
100
AcDbLinetypeTableRecord
  2
BYLAYER
 70
     0
  3

 72
    65
 73
     0
 40
0.0
  0
LTYPE
  5
16
330
5
100
AcDbSymbolTableRecord
100
AcDbLinetypeTableRecord
  2
CONTINUOUS
 70
     0
  3
Solid line
 72
    65
 73
     0
 40
0.0
  0
ENDTAB
  0
TABLE
  2
LAYER
  5
2
100
AcDbSymbolTable
 70
1
  0
LAYER
  5
50
100
AcDbSymbolTableRecord
100
AcDbLayerTableRecord
  2
0
 70
0
  6
CONTINUOUS
  0
ENDTAB
  0
TABLE
  2
STYLE
  5
3
330
0
100
AcDbSymbolTable
 70
     1
  0
STYLE
  5
11
330
3
100
AcDbSymbolTableRecord
100
AcDbTextStyleTableRecord
  2
STANDARD
 70
     0
 40
0.0
 41
1.0
 50
0.0
 71
     0
 42
2.5
  3
txt
  4

  0
ENDTAB
  0
TABLE
  2
VIEW
  5
6
330
0
100
AcDbSymbolTable
 70
     0
  0
ENDTAB
  0
TABLE
  2
UCS
  5
7
330
0
100
AcDbSymbolTable
 70
     0
  0
ENDTAB
  0
TABLE
  2
APPID
  5
9
330
0
100
AcDbSymbolTable
 70
     2
  0
APPID
  5
12
330
9
100
AcDbSymbolTableRecord
100
AcDbRegAppTableRecord
  2
ACAD
 70
     0
  0
ENDTAB
  0
TABLE
  2
DIMSTYLE
  5
A
330
0
100
AcDbSymbolTable
 70
     1
  0
DIMSTYLE
105
27
330
A
100
AcDbSymbolTableRecord
100
AcDbDimStyleTableRecord
  2
ISO-25
 70
     0
  3

  4

  5

  6

  7

 40
1.0
 41
2.5
 42
0.625
 43
3.75
 44
1.25
 45
0.0
 46
0.0
 47
0.0
 48
0.0
140
2.5
141
2.5
142
0.0
143
0.03937007874016
144
1.0
145
0.0
146
1.0
147
0.625
 71
     0
 72
     0
 73
     0
 74
     0
 75
     0
 76
     0
 77
     1
 78
     8
170
     0
171
     3
172
     1
173
     0
174
     0
175
     0
176
     0
177
     0
178
     0
270
     2
271
     2
272
     2
273
     2
274
     3
340
11
275
     0
280
     0
281
     0
282
     0
283
     0
284
     8
285
     0
286
     0
287
     3
288
     0
  0
ENDTAB
  0
TABLE
  2
BLOCK_RECORD
  5
1
330
0
100
AcDbSymbolTable
 70
     1
  0
BLOCK_RECORD
  5
1F
330
1
100
AcDbSymbolTableRecord
100
AcDbBlockTableRecord
  2
*MODEL_SPACE
  0
BLOCK_RECORD
  5
1B
330
1
100
AcDbSymbolTableRecord
100
AcDbBlockTableRecord
  2
*PAPER_SPACE
  0
ENDTAB
  0
ENDSEC
  0
SECTION
  2
BLOCKS
  0
BLOCK
  5
20
330
1F
100
AcDbEntity
  8
0
100
AcDbBlockBegin
  2
*MODEL_SPACE
 70
     0
 10
0.0
 20
0.0
 30
0.0
  3
*MODEL_SPACE
  1

  0
ENDBLK
  5
21
330
1F
100
AcDbEntity
  8
0
100
AcDbBlockEnd
  0
BLOCK
  5
1C
330
1B
100
AcDbEntity
 67
     1
  8
0
100
AcDbBlockBegin
  2
*PAPER_SPACE
  1

  0
ENDBLK
  5
1D
330
1B
100
AcDbEntity
 67
     1
  8
0
100
AcDbBlockEnd
  0
ENDSEC
  0
SECTION
  2
ENTITIES
  0
LWPOLYLINE
  5
100
100
AcDbEntity
  8
0
 62
7
100
AcDbPolyline
 90
140
 70
1
 10
8.500177
 20
0.000000
 30
0.0
 10
7.145154
 20
0.031000
 30
0.0
 10
6.313800
 20
0.277360
 30
0.0
 10
5.574573
 20
0.862270
 30
0.0
 10
4.866139
 20
1.570710
 30
0.0
 10
4.342471
 20
2.248170
 30
0.0
 10
3.819227
 20
3.233920
 30
0.0
 10
3.357231
 20
4.342510
 30
0.0
 10
3.110879
 20
5.574610
 30
0.0
 10
3.079999
 20
6.898920
 30
0.0
 10
3.233884
 20
7.914950
 30
0.0
 10
3.572789
 20
9.054330
 30
0.0
 10
3.850105
 20
9.947870
 30
0.0
 10
6.529357
 20
16.230360
 30
0.0
 10
9.023845
 20
20.973320
 30
0.0
 10
9.424168
 20
21.712210
 30
0.0
 10
9.763072
 20
22.389840
 30
0.0
 10
9.978630
 20
23.375420
 30
0.0
 10
10.225068
 20
24.514800
 30
0.0
 10
10.255948
 20
25.100400
 30
0.0
 10
10.255948
 20
25.839110
 30
0.0
 10
10.225068
 20
26.424370
 30
0.0
 10
10.255948
 20
26.917410
 30
0.0
 10
10.225068
 20
27.594880
 30
0.0
 10
10.348074
 20
28.303310
 30
0.0
 10
10.378954
 20
29.011580
 30
0.0
 10
10.594512
 20
29.596660
 30
0.0
 10
11.025629
 20
30.274130
 30
0.0
 10
11.518419
 20
31.044150
 30
0.0
 10
11.795650
 20
31.721620
 30
0.0
 10
12.350198
 20
32.614820
 30
0.0
 10
12.781315
 20
33.631190
 30
0.0
 10
13.089000
 20
34.524390
 30
0.0
 10
13.273764
 20
35.171060
 30
0.0
 10
13.366314
 20
35.725180
 30
0.0
 10
14.074663
 20
41.638660
 30
0.0
 10
4.927896
 20
41.607660
 30
0.0
 10
4.373263
 20
41.915260
 30
0.0
 10
3.911352
 20
42.192580
 30
0.0
 10
3.572788
 20
42.347060
 30
0.0
 10
3.233883
 20
42.716250
 30
0.0
 10
2.987361
 20
43.178330
 30
0.0
 10
2.741008
 20
43.825000
 30
0.0
 10
2.679248
 20
44.533260
 30
0.0
 10
4.096029
 20
52.971760
 30
0.0
 10
6.929592
 20
54.819660
 30
0.0
 10
4.619783
 20
56.852230
 30
0.0
 10
4.712333
 20
57.530210
 30
0.0
 10
4.742703
 20
58.022570
 30
0.0
 10
5.081693
 20
58.453690
 30
0.0
 10
5.266372
 20
59.039120
 30
0.0
 10
5.420682
 20
59.747460
 30
0.0
 10
5.728368
 20
60.271130
 30
0.0
 10
6.036478
 20
61.133360
 30
0.0
 10
6.036478
 20
61.533600
 30
0.0
 10
4.650576
 20
61.872590
 30
0.0
 10
2.925769
 20
61.964690
 30
0.0
 10
1.940530
 20
62.211130
 30
0.0
 10
0.985745
 20
62.488440
 30
0.0
 10
0.584997
 20
62.519240
 30
0.0
 10
0.462076
 20
62.734790
 30
0.0
 10
0.338559
 20
63.012110
 30
0.0
 10
0.338559
 20
63.319800
 30
0.0
 10
0.369439
 20
63.750910
 30
0.0
 10
0.523665
 20
64.151570
 30
0.0
 10
0.523665
 20
65.260160
 30
0.0
 10
0.862229
 20
66.215030
 30
0.0
 10
1.570662
 20
67.416170
 30
0.0
 10
1.878773
 20
68.093720
 30
0.0
 10
2.432896
 20
69.233180
 30
0.0
 10
2.771800
 20
70.002860
 30
0.0
 10
3.449354
 20
71.327090
 30
0.0
 10
3.972598
 20
72.743790
 30
0.0
 10
4.681456
 20
74.160650
 30
0.0
 10
4.927383
 20
76.347450
 30
0.0
 10
1.940021
 20
76.839820
 30
0.0
 10
1.385898
 20
78.287480
 30
0.0
 10
1.139546
 20
79.334810
 30
0.0
 10
0.862229
 20
80.505160
 30
0.0
 10
0.800559
 20
81.274840
 30
0.0
 10
1.231676
 20
82.291290
 30
0.0
 10
1.231676
 20
82.414300
 30
0.0
 10
0.800559
 20
83.184400
 30
0.0
 10
0.492874
 20
83.708070
 30
0.0
 10
0.338564
 20
84.231320
 30
0.0
 10
0.061332
 20
84.878500
 30
0.0
 10
0.061332
 20
85.340410
 30
0.0
 10
0.030964
 20
86.233540
 30
0.0
 10
0.000000
 20
86.756790
 30
0.0
 10
0.000000
 20
87.157450
 30
0.0
 10
0.123006
 20
87.896250
 30
0.0
 10
0.431117
 20
88.327790
 30
0.0
 10
0.523327
 20
88.573800
 30
0.0
 10
0.923989
 20
88.758910
 30
0.0
 10
1.262554
 20
89.035710
 30
0.0
 10
1.662791
 20
89.867580
 30
0.0
 10
2.124787
 20
90.483370
 30
0.0
 10
2.741008
 20
91.160840
 30
0.0
 10
3.295131
 20
91.777150
 30
0.0
 10
4.219037
 20
92.392940
 30
0.0
 10
4.804379
 20
92.916610
 30
0.0
 10
5.820498
 20
92.977910
 30
0.0
 10
6.621398
 20
93.193470
 30
0.0
 10
7.976506
 20
93.501580
 30
0.0
 10
8.807860
 20
93.778890
 30
0.0
 10
9.700973
 20
93.932690
 30
0.0
 10
10.840437
 20
94.302560
 30
0.0
 10
11.025627
 20
94.518120
 30
0.0
 10
11.703096
 20
94.333010
 30
0.0
 10
12.411529
 20
94.117460
 30
0.0
 10
13.212004
 20
93.963660
 30
0.0
 10
13.827800
 20
93.901860
 30
0.0
 10
15.521814
 20
93.963660
 30
0.0
 10
16.753915
 20
94.302560
 30
0.0
 10
17.523596
 20
94.579370
 30
0.0
 10
18.262822
 20
94.949240
 30
0.0
 10
19.217608
 20
95.626790
 30
0.0
 10
19.956836
 20
96.180830
 30
0.0
 10
21.958534
 20
95.688460
 30
0.0
 10
22.543535
 20
95.657660
 30
0.0
 10
23.190636
 20
95.688460
 30
0.0
 10
23.960316
 20
95.718960
 30
0.0
 10
24.668666
 20
95.904060
 30
0.0
 10
25.284885
 20
95.996260
 30
0.0
 10
25.777334
 20
96.180860
 30
0.0
 10
26.147118
 20
96.550720
 30
0.0
 10
26.793795
 20
97.104850
 30
0.0
 10
27.502226
 20
97.597720
 30
0.0
 10
28.764699
 20
97.659420
 30
0.0
 10
29.288367
 20
97.721120
 30
0.0
 10
29.904161
 20
97.690320
 30
0.0
 10
30.397036
 20
97.659420
 30
0.0
 10
31.290064
 20
98.028870
 30
0.0
 10
31.690728
 20
98.306100
 30
0.0
 10
32.275730
 20
98.552540
 30
0.0
 10
32.922403
 20
99.107000
 30
0.0
 10
33.599873
 20
99.383890
 30
0.0
 10
34.247061
 20
100.000110
 30
0.0
 10
100.000000
 20
100.000020
 30
0.0
 10
100.000000
 20
0.000000
 30
0.0
  0
ENDSEC
  0
SECTION
  2
OBJECTS
  0
DICTIONARY
  5
C
330
0
100
AcDbDictionary
  3
ACAD_GROUP
350
D
  3
ACAD_MLINESTYLE
350
17
  0
DICTIONARY
  5
D
330
C
100
AcDbDictionary
  0
DICTIONARY
  5
1A
330
C
100
AcDbDictionary
  0
DICTIONARY
  5
17
330
C
100
AcDbDictionary
  3
STANDARD
350
18
  0
DICTIONARY
  5
19
330
C
100
AcDbDictionary
  0
ENDSEC
  0
EOF
