  0
SECTION
  2
HEADER
  9
$ACADVER
  1
AC1014
  9
$HANDSEED
  5
FFFF
  9
$MEASUREMENT
 70
     1
  0
ENDSEC
  0
SECTION
  2
TABLES
  0
TABLE
  2
VPORT
  5
8
330
0
100
AcDbSymbolTable
 70
     4
  0
VPORT
  5
2E
330
8
100
AcDbSymbolTableRecord
100
AcDbViewportTableRecord
  2
*ACTIVE
 70
     0
 10
0.0
 20
0.0
 11
1.0
 21
1.0
 12
210.0
 22
148.5
 13
0.0
 23
0.0
 14
10.0
 24
10.0
 15
10.0
 25
10.0
 16
0.0
 26
0.0
 36
1.0
 17
0.0
 27
0.0
 37
0.0
 40
341.0
 41
1.24
 42
50.0
 43
0.0
 44
0.0
 50
0.0
 51
0.0
 71
     0
 72
   100
 73
     1
 74
     3
 75
     0
 76
     0
 77
     0
 78
     0
  0
ENDTAB
  0
TABLE
  2
LTYPE
  5
5
330
0
100
AcDbSymbolTable
 70
     1
  0
LTYPE
  5
14
330
5
100
AcDbSymbolTableRecord
100
AcDbLinetypeTableRecord
  2
BYBLOCK
 70
     0
  3

 72
    65
 73
     0
 40
0.0
  0
LTYPE
  5
15
330
5
100
AcDbSymbolTableRecord
100
AcDbLinetypeTableRecord
  2
BYLAYER
 70
     0
  3

 72
    65
 73
     0
 40
0.0
  0
LTYPE
  5
16
330
5
100
AcDbSymbolTableRecord
100
AcDbLinetypeTableRecord
  2
CONTINUOUS
 70
     0
  3
Solid line
 72
    65
 73
     0
 40
0.0
  0
ENDTAB
  0
TABLE
  2
LAYER
  5
2
100
AcDbSymbolTable
 70
1
  0
LAYER
  5
50
100
AcDbSymbolTableRecord
100
AcDbLayerTableRecord
  2
0
 70
0
  6
CONTINUOUS
  0
ENDTAB
  0
TABLE
  2
STYLE
  5
3
330
0
100
AcDbSymbolTable
 70
     1
  0
STYLE
  5
11
330
3
100
AcDbSymbolTableRecord
100
AcDbTextStyleTableRecord
  2
STANDARD
 70
     0
 40
0.0
 41
1.0
 50
0.0
 71
     0
 42
2.5
  3
txt
  4

  0
ENDTAB
  0
TABLE
  2
VIEW
  5
6
330
0
100
AcDbSymbolTable
 70
     0
  0
ENDTAB
  0
TABLE
  2
UCS
  5
7
330
0
100
AcDbSymbolTable
 70
     0
  0
ENDTAB
  0
TABLE
  2
APPID
  5
9
330
0
100
AcDbSymbolTable
 70
     2
  0
APPID
  5
12
330
9
100
AcDbSymbolTableRecord
100
AcDbRegAppTableRecord
  2
ACAD
 70
     0
  0
ENDTAB
  0
TABLE
  2
DIMSTYLE
  5
A
330
0
100
AcDbSymbolTable
 70
     1
  0
DIMSTYLE
105
27
330
A
100
AcDbSymbolTableRecord
100
AcDbDimStyleTableRecord
  2
ISO-25
 70
     0
  3

  4

  5

  6

  7

 40
1.0
 41
2.5
 42
0.625
 43
3.75
 44
1.25
 45
0.0
 46
0.0
 47
0.0
 48
0.0
140
2.5
141
2.5
142
0.0
143
0.03937007874016
144
1.0
145
0.0
146
1.0
147
0.625
 71
     0
 72
     0
 73
     0
 74
     0
 75
     0
 76
     0
 77
     1
 78
     8
170
     0
171
     3
172
     1
173
     0
174
     0
175
     0
176
     0
177
     0
178
     0
270
     2
271
     2
272
     2
273
     2
274
     3
340
11
275
     0
280
     0
281
     0
282
     0
283
     0
284
     8
285
     0
286
     0
287
     3
288
     0
  0
ENDTAB
  0
TABLE
  2
BLOCK_RECORD
  5
1
330
0
100
AcDbSymbolTable
 70
     1
  0
BLOCK_RECORD
  5
1F
330
1
100
AcDbSymbolTableRecord
100
AcDbBlockTableRecord
  2
*MODEL_SPACE
  0
BLOCK_RECORD
  5
1B
330
1
100
AcDbSymbolTableRecord
100
AcDbBlockTableRecord
  2
*PAPER_SPACE
  0
ENDTAB
  0
ENDSEC
  0
SECTION
  2
BLOCKS
  0
BLOCK
  5
20
330
1F
100
AcDbEntity
  8
0
100
AcDbBlockBegin
  2
*MODEL_SPACE
 70
     0
 10
0.0
 20
0.0
 30
0.0
  3
*MODEL_SPACE
  1

  0
ENDBLK
  5
21
330
1F
100
AcDbEntity
  8
0
100
AcDbBlockEnd
  0
BLOCK
  5
1C
330
1B
100
AcDbEntity
 67
     1
  8
0
100
AcDbBlockBegin
  2
*PAPER_SPACE
  1

  0
ENDBLK
  5
1D
330
1B
100
AcDbEntity
 67
     1
  8
0
100
AcDbBlockEnd
  0
ENDSEC
  0
SECTION
  2
ENTITIES
  0
SPLINE
  5
100
100
AcDbEntity
  8
0
 62
7
100
AcDbSpline
 70
8
 71
3
 72
8
 73
4
 74
0
 40
0
 40
0
 40
0
 40
0
 40
1
 40
1
 40
1
 40
1
 10
421.500000
 20
440.250000
 30
0.0
 10
431.855713
 20
440.250000
 30
0.0
 10
440.250000
 20
431.855713
 30
0.0
 10
440.250000
 20
421.500000
 30
0.0
  0
LWPOLYLINE
  5
101
100
AcDbEntity
  8
0
 62
7
100
AcDbPolyline
 90
139
 70
0
 10
46.343262
 20
9.750000
 30
0.0
 10
40.509888
 20
9.883301
 30
0.0
 10
36.930908
 20
10.943848
 30
0.0
 10
33.748535
 20
13.461914
 30
0.0
 10
30.698730
 20
16.511719
 30
0.0
 10
28.444336
 20
19.428223
 30
0.0
 10
26.191772
 20
23.671875
 30
0.0
 10
24.202881
 20
28.444336
 30
0.0
 10
23.142334
 20
33.748535
 30
0.0
 10
23.009399
 20
39.449707
 30
0.0
 10
23.671875
 20
43.823731
 30
0.0
 10
25.130859
 20
48.728760
 30
0.0
 10
26.324707
 20
52.575440
 30
0.0
 10
37.858887
 20
79.621582
 30
0.0
 10
48.597656
 20
100.040039
 30
0.0
 10
50.321045
 20
103.220947
 30
0.0
 10
51.780029
 20
106.138184
 30
0.0
 10
52.708008
 20
110.381104
 30
0.0
 10
53.768921
 20
115.286133
 30
0.0
 10
53.901855
 20
117.807129
 30
0.0
 10
53.901855
 20
120.987305
 30
0.0
 10
53.768921
 20
123.506836
 30
0.0
 10
53.901855
 20
125.629395
 30
0.0
 10
53.768921
 20
128.545899
 30
0.0
 10
54.298462
 20
131.595703
 30
0.0
 10
54.431396
 20
134.644776
 30
0.0
 10
55.359375
 20
137.163574
 30
0.0
 10
57.215332
 20
140.080078
 30
0.0
 10
59.336792
 20
143.395020
 30
0.0
 10
60.530273
 20
146.311524
 30
0.0
 10
62.917603
 20
150.156739
 30
0.0
 10
64.773560
 20
154.532227
 30
0.0
 10
66.098145
 20
158.377442
 30
0.0
 10
66.893555
 20
161.161377
 30
0.0
 10
67.291992
 20
163.546875
 30
0.0
 10
70.341431
 20
189.004395
 30
0.0
 10
30.964600
 20
188.871094
 30
0.0
 10
28.576904
 20
190.195313
 30
0.0
 10
26.588379
 20
191.389160
 30
0.0
 10
25.130859
 20
192.054200
 30
0.0
 10
23.671875
 20
193.643555
 30
0.0
 10
22.610596
 20
195.632812
 30
0.0
 10
21.550049
 20
198.416748
 30
0.0
 10
21.284180
 20
201.465820
 30
0.0
 10
27.383423
 20
237.793579
 30
0.0
 10
39.581909
 20
245.748779
 30
0.0
 10
29.638184
 20
254.499023
 30
0.0
 10
30.036621
 20
257.417725
 30
0.0
 10
30.167358
 20
259.537354
 30
0.0
 10
31.626709
 20
261.393311
 30
0.0
 10
32.421753
 20
263.913574
 30
0.0
 10
33.086060
 20
266.963013
 30
0.0
 10
34.410644
 20
269.217407
 30
0.0
 10
35.737061
 20
272.929322
 30
0.0
 10
35.737061
 20
274.652344
 30
0.0
 10
29.770752
 20
276.111695
 30
0.0
 10
22.345459
 20
276.508301
 30
0.0
 10
18.104004
 20
277.569214
 30
0.0
 10
13.993652
 20
278.763062
 30
0.0
 10
12.268433
 20
278.895630
 30
0.0
 10
11.739258
 20
279.823609
 30
0.0
 10
11.207519
 20
281.017456
 30
0.0
 10
11.207519
 20
282.342041
 30
0.0
 10
11.340454
 20
284.197998
 30
0.0
 10
12.004394
 20
285.922852
 30
0.0
 10
12.004394
 20
290.695312
 30
0.0
 10
13.461914
 20
294.806030
 30
0.0
 10
16.511719
 20
299.976929
 30
0.0
 10
17.838135
 20
302.893799
 30
0.0
 10
20.223633
 20
307.799194
 30
0.0
 10
21.682617
 20
311.112671
 30
0.0
 10
24.599487
 20
316.813477
 30
0.0
 10
26.852051
 20
322.912354
 30
0.0
 10
29.903687
 20
329.011963
 30
0.0
 10
30.962402
 20
338.426147
 30
0.0
 10
18.101807
 20
340.545776
 30
0.0
 10
15.716309
 20
346.777954
 30
0.0
 10
14.655762
 20
351.286743
 30
0.0
 10
13.461914
 20
356.325073
 30
0.0
 10
13.196411
 20
359.638550
 30
0.0
 10
15.052368
 20
364.014404
 30
0.0
 10
15.052368
 20
364.543945
 30
0.0
 10
13.196411
 20
367.859253
 30
0.0
 10
11.871826
 20
370.113648
 30
0.0
 10
11.207520
 20
372.366211
 30
0.0
 10
10.014038
 20
375.152344
 30
0.0
 10
10.014038
 20
377.140869
 30
0.0
 10
9.883301
 20
380.985718
 30
0.0
 10
9.750000
 20
383.238281
 30
0.0
 10
9.750000
 20
384.963135
 30
0.0
 10
10.279541
 20
388.143677
 30
0.0
 10
11.605957
 20
390.001465
 30
0.0
 10
12.002930
 20
391.060547
 30
0.0
 10
13.727783
 20
391.857422
 30
0.0
 10
15.185303
 20
393.049072
 30
0.0
 10
16.908325
 20
396.630249
 30
0.0
 10
18.897217
 20
399.281250
 30
0.0
 10
21.550049
 20
402.197754
 30
0.0
 10
23.935547
 20
404.850952
 30
0.0
 10
27.912964
 20
407.501953
 30
0.0
 10
30.432861
 20
409.756348
 30
0.0
 10
34.807251
 20
410.020020
 30
0.0
 10
38.255127
 20
410.947998
 30
0.0
 10
44.088867
 20
412.274414
 30
0.0
 10
47.667847
 20
413.468262
 30
0.0
 10
51.512695
 20
414.130371
 30
0.0
 10
56.418091
 20
415.722656
 30
0.0
 10
57.215332
 20
416.650635
 30
0.0
 10
60.131836
 20
415.853760
 30
0.0
 10
63.181641
 20
414.925781
 30
0.0
 10
66.627686
 20
414.263672
 30
0.0
 10
69.278687
 20
413.997803
 30
0.0
 10
76.571411
 20
414.263672
 30
0.0
 10
81.875611
 20
415.722656
 30
0.0
 10
85.189087
 20
416.914307
 30
0.0
 10
88.371460
 20
418.506592
 30
0.0
 10
92.481812
 20
421.423462
 30
0.0
 10
95.664185
 20
423.808594
 30
0.0
 10
104.281494
 20
421.688965
 30
0.0
 10
106.799927
 20
421.556397
 30
0.0
 10
109.585694
 20
421.688965
 30
0.0
 10
112.899170
 20
421.820069
 30
0.0
 10
115.948609
 20
422.616944
 30
0.0
 10
118.601441
 20
423.013916
 30
0.0
 10
120.721436
 20
423.808594
 30
0.0
 10
122.313355
 20
425.400879
 30
0.0
 10
125.097291
 20
427.786377
 30
0.0
 10
128.147095
 20
429.908203
 30
0.0
 10
133.582032
 20
430.173706
 30
0.0
 10
135.836426
 20
430.439209
 30
0.0
 10
138.487427
 20
430.306641
 30
0.0
 10
140.609254
 20
430.173706
 30
0.0
 10
144.453736
 20
431.764160
 30
0.0
 10
146.178589
 20
432.957642
 30
0.0
 10
148.697022
 20
434.018555
 30
0.0
 10
151.480958
 20
436.405518
 30
0.0
 10
154.397462
 20
437.597535
 30
0.0
 10
157.183594
 20
440.250367
 30
0.0
 10
421.500000
 20
440.250000
 30
0.0
  0
SPLINE
  5
102
100
AcDbEntity
  8
0
 62
7
100
AcDbSpline
 70
8
 71
3
 72
8
 73
4
 74
0
 40
0
 40
0
 40
0
 40
0
 40
1
 40
1
 40
1
 40
1
 10
440.250000
 20
28.500000
 30
0.0
 10
440.250000
 20
18.145020
 30
0.0
 10
431.855713
 20
9.750000
 30
0.0
 10
421.500000
 20
9.750000
 30
0.0
  0
LWPOLYLINE
  5
103
100
AcDbEntity
  8
0
 62
7
100
AcDbPolyline
 90
2
 70
0
 10
440.250000
 20
421.500000
 30
0.0
 10
440.250000
 20
28.500000
 30
0.0
  0
LWPOLYLINE
  5
104
100
AcDbEntity
  8
0
 62
7
100
AcDbPolyline
 90
3
 70
0
 10
421.500000
 20
9.750000
 30
0.0
 10
46.343262
 20
9.750000
 30
0.0
 10
46.343262
 20
9.750000
 30
0.0
  0
ENDSEC
  0
SECTION
  2
OBJECTS
  0
DICTIONARY
  5
C
330
0
100
AcDbDictionary
  3
ACAD_GROUP
350
D
  3
ACAD_MLINESTYLE
350
17
  0
DICTIONARY
  5
D
330
C
100
AcDbDictionary
  0
DICTIONARY
  5
1A
330
C
100
AcDbDictionary
  0
DICTIONARY
  5
17
330
C
100
AcDbDictionary
  3
STANDARD
350
18
  0
DICTIONARY
  5
19
330
C
100
AcDbDictionary
  0
ENDSEC
  0
EOF
